<svg width="1600" height="815" viewBox="0 0 1600 815" fill="none" xmlns="http://www.w3.org/2000/svg">
<path d="M0 544H1600V604L0 815V544Z" fill="#EF2A82"/>
<path d="M0 0H1600V587L0 798V0Z" fill="#172755"/>
<mask id="mask0" mask-type="alpha" maskUnits="userSpaceOnUse" x="0" y="-1" width="1600" height="799">
<path d="M0 -0.00012207H1600V587L0 798V-0.00012207Z" fill="#172755"/>
</mask>
<g mask="url(#mask0)">
<g opacity="0.07">
<path d="M1832.47 274.985C1702.93 85.9868 1485.44 -38 1239 -38C841.907 -38 520 283.907 520 681C520 738.771 526.814 794.95 539.681 848.779L905.824 482.636C940.922 447.538 997.828 447.538 1032.93 482.636L1328.88 778.585L1832.47 274.985Z" fill="#8794BA"/>
<path d="M1917.93 443.734L1392.43 969.239C1357.33 1004.34 1300.42 1004.34 1265.32 969.239L969.375 673.29L611.104 1031.56C734.1 1251.39 969.195 1400 1239 1400C1636.09 1400 1958 1078.09 1958 681C1958 597.861 1943.89 518.017 1917.93 443.734Z" fill="#8794BA"/>
</g>
</g>
<g opacity="0.07">
<path d="M502.387 -117.35C442.929 -204.094 343.11 -261.001 230 -261.001C47.746 -261.001 -100 -113.255 -100 68.9993C-100 95.5144 -96.8727 121.299 -90.9671 146.005L77.0818 -22.0439C93.191 -38.1531 119.309 -38.1531 135.418 -22.0439L271.25 113.788L502.387 -117.35Z" fill="#8794BA"/>
<path d="M541.609 -39.8988L300.418 201.292C284.309 217.402 258.191 217.402 242.082 201.292L106.25 65.4606L-58.186 229.897C-1.73432 330.792 106.168 398.999 230 398.999C412.254 398.999 560 251.253 560 68.9993C560 30.8407 553.523 -5.80507 541.609 -39.8988Z" fill="#8794BA"/>
</g>
</svg>
