<svg width="61" height="60" viewBox="0 0 61 60" fill="none" xmlns="http://www.w3.org/2000/svg">
<g clip-path="url(#clip0)">
<path d="M33.1294 41H27.1294C26.5774 41 26.1294 41.448 26.1294 42C26.1294 42.5519 26.5774 43 27.1294 43H33.1294C33.6813 43 34.1293 42.5519 34.1293 42C34.1293 41.448 33.6813 41 33.1294 41Z" fill="#EF2A82"/>
<path d="M56.1284 1H4.13041C1.92436 1 0.129395 2.79508 0.129395 5.00102V38C0.129395 38.5519 0.577402 38.9999 1.12936 38.9999H59.1293C59.6813 38.9999 60.1293 38.5519 60.1293 38V5.00102C60.1294 2.79508 58.3344 1 56.1284 1ZM58.1294 37H2.12943V5.00102C2.12943 3.89699 3.02744 3.00004 4.13041 3.00004H56.1284C57.2313 3.00004 58.1294 3.89699 58.1294 5.00102V37Z" fill="#EF2A82"/>
<path d="M59.1294 36.9999H1.12936C0.577402 36.9999 0.129395 37.448 0.129395 38V42.9989C0.129395 45.2049 1.92436 46.9999 4.13041 46.9999H56.1284C58.3344 46.9999 60.1294 45.2049 60.1294 42.9989L60.1293 38C60.1293 37.448 59.6814 36.9999 59.1294 36.9999ZM58.1294 42.999C58.1294 44.103 57.2313 45 56.1284 45H4.13041C3.02744 45 2.12943 44.103 2.12943 42.999V39H58.1295L58.1294 42.999Z" fill="#EF2A82"/>
<path d="M55.1293 5.00005H5.1294C4.57745 5.00005 4.12944 5.44806 4.12944 6.00001V38C4.12944 38.552 4.57745 39 5.1294 39H55.1294C55.6814 39 56.1294 38.552 56.1294 38V6.00001C56.1294 5.44806 55.6814 5.00005 55.1293 5.00005ZM54.1294 37H6.12936V6.99997H54.1294V37Z" fill="#EF2A82"/>
<path d="M43.1293 53.0001H17.1294C15.4754 53.0001 14.1294 54.3461 14.1294 56.0001C14.1294 57.6541 15.4754 59.0001 17.1294 59.0001H43.1294C44.7834 59.0001 46.1294 57.6541 46.1294 56.0001C46.1294 54.3461 44.7833 53.0001 43.1293 53.0001ZM43.1293 57H17.1294C16.5774 57 16.1294 56.5511 16.1294 56.0001C16.1294 55.4491 16.5774 55.0001 17.1294 55.0001H43.1294C43.6814 55.0001 44.1294 55.4491 44.1294 56.0001C44.1294 56.5511 43.6814 57 43.1293 57Z" fill="#EF2A82"/>
<path d="M41.1294 53.0001C37.8113 53.0001 36.1293 50.6451 36.1293 46.0001C36.1293 45.4482 35.6813 45.0001 35.1294 45.0001H25.1294C24.5774 45.0001 24.1294 45.4482 24.1294 46.0001C24.1294 50.6451 22.4475 53.0001 19.1294 53.0001C18.5775 53.0001 18.1294 53.4481 18.1294 54C18.1294 54.552 18.5775 55 19.1294 55H41.1294C41.6813 55 42.1293 54.552 42.1293 54C42.1293 53.4481 41.6813 53.0001 41.1294 53.0001ZM24.0003 53.0001C25.2314 51.6361 25.9563 49.605 26.1023 47.0001H34.1573C34.3022 49.605 35.0273 51.6361 36.2593 53.0001H24.0003Z" fill="#EF2A82"/>
<path d="M47.9134 30.464L45.4994 28.05L46.8424 26.707C47.0914 26.458 47.1914 26.096 47.1053 25.755C47.0193 25.414 46.7603 25.144 46.4233 25.042L36.4234 22.042C36.0704 21.936 35.6894 22.033 35.4294 22.2931C35.1684 22.5531 35.0724 22.935 35.1784 23.287L38.1784 33.287C38.2794 33.625 38.5503 33.884 38.8913 33.97C39.2313 34.054 39.5943 33.9559 39.8434 33.707L41.2573 32.292L43.6713 34.707C43.8583 34.8949 44.1133 34.9999 44.3783 34.9999C44.6432 34.9999 44.8982 34.8949 45.0853 34.707L47.9132 31.8779C48.3043 31.487 48.3043 30.855 47.9134 30.464ZM44.3783 32.586L42.1803 30.387C41.9253 30.132 41.5913 30.0049 41.2573 30.0049C40.9223 30.0049 40.5883 30.1329 40.3344 30.3859L39.6124 31.1079L37.6273 24.4909L44.2443 26.4759L43.4703 27.25C43.2573 27.464 43.1403 27.748 43.1403 28.05C43.1403 28.3531 43.2583 28.639 43.4723 28.851L45.7923 31.1709L44.3783 32.586Z" fill="#EF2A82"/>
<path d="M42.1293 8.99997H14.1294C13.5774 8.99997 13.1294 9.44798 13.1294 9.99993V15C13.1294 15.5519 13.5774 15.9999 14.1294 15.9999H42.1293C42.6813 15.9999 43.1293 15.5519 43.1293 15V9.99993C43.1293 9.44798 42.6813 8.99997 42.1293 8.99997ZM41.1294 14H15.1293V11H41.1294V14Z" fill="#EF2A82"/>
<path d="M26.1295 20.0001H18.1295C17.5775 20.0001 17.1295 20.4481 17.1295 21V25C17.1295 25.5519 17.5775 25.9999 18.1295 25.9999H26.1295C26.6815 25.9999 27.1295 25.5519 27.1295 25V21C27.1295 20.4481 26.6815 20.0001 26.1295 20.0001ZM25.1294 24H19.1294V22H25.1294V24Z" fill="#EF2A82"/>
<path d="M42.1293 8.99997H14.1294C13.5774 8.99997 13.1294 9.44798 13.1294 9.99993V28.9999C13.1294 29.5518 13.5774 29.9999 14.1294 29.9999H37.9354C38.2524 29.9999 38.5494 29.8509 38.7374 29.5968C38.9265 29.3429 38.9845 29.0149 38.8934 28.7118L37.6274 24.4909L41.8424 25.7559C42.1455 25.847 42.4735 25.789 42.7264 25.5999C42.9803 25.412 43.1294 25.114 43.1294 24.7979L43.1293 9.99993C43.1293 9.44798 42.6813 8.99997 42.1293 8.99997ZM41.1294 23.454L36.4223 22.042C36.0693 21.9359 35.6883 22.033 35.4283 22.293C35.1673 22.554 35.0713 22.935 35.1773 23.2881L36.5913 28H15.1293V11H41.1294V23.454Z" fill="#EF2A82"/>
</g>
<defs>
<clipPath id="clip0">
<rect width="60" height="60" fill="white" transform="translate(0.129395)"/>
</clipPath>
</defs>
</svg>
