<svg width="671" height="480" viewBox="0 0 671 480" fill="none" xmlns="http://www.w3.org/2000/svg">
<g filter="url(#filter0_d)">
<rect x="35.1294" y="17" width="600" height="410" rx="30" fill="white"/>
</g>
<rect x="134.129" y="89" width="1" height="271" fill="#EEEEF7"/>
<rect x="197.129" y="89" width="1" height="271" fill="#EEEEF7"/>
<rect x="260.129" y="89" width="1" height="271" fill="#EEEEF7"/>
<rect x="323.129" y="89" width="1" height="271" fill="#EEEEF7"/>
<rect x="386.129" y="89" width="1" height="271" fill="#EEEEF7"/>
<rect x="449.129" y="89" width="1" height="271" fill="#EEEEF7"/>
<rect x="512.129" y="89" width="1" height="271" fill="#EEEEF7"/>
<rect x="575.129" y="89" width="1" height="271" fill="#EEEEF7"/>
<path d="M94.0669 109.723L94.5005 105.469H98.8716V106.471H95.4204L95.1626 108.797C95.5806 108.551 96.0552 108.428 96.5864 108.428C97.3638 108.428 97.981 108.686 98.438 109.201C98.895 109.713 99.1235 110.406 99.1235 111.281C99.1235 112.16 98.8853 112.854 98.4087 113.361C97.936 113.865 97.2739 114.117 96.4224 114.117C95.6685 114.117 95.0532 113.908 94.5767 113.49C94.1001 113.072 93.8286 112.494 93.7622 111.756H94.7876C94.854 112.244 95.0278 112.613 95.3091 112.863C95.5903 113.109 95.9614 113.232 96.4224 113.232C96.9263 113.232 97.3208 113.061 97.606 112.717C97.895 112.373 98.0396 111.898 98.0396 111.293C98.0396 110.723 97.8833 110.266 97.5708 109.922C97.2622 109.574 96.8501 109.4 96.3345 109.4C95.8618 109.4 95.4907 109.504 95.2212 109.711L94.9341 109.945L94.0669 109.723ZM104.883 111.135H106.067V112.02H104.883V114H103.793V112.02H99.9087V111.381L103.729 105.469H104.883V111.135ZM101.139 111.135H103.793V106.951L103.665 107.186L101.139 111.135ZM109.413 110.818H106.553V109.934H109.413V110.818ZM114.616 105.463V106.383H114.417C113.573 106.398 112.901 106.648 112.401 107.133C111.901 107.617 111.612 108.299 111.534 109.178C111.983 108.662 112.596 108.404 113.374 108.404C114.116 108.404 114.708 108.666 115.149 109.189C115.594 109.713 115.817 110.389 115.817 111.217C115.817 112.096 115.577 112.799 115.096 113.326C114.62 113.854 113.979 114.117 113.174 114.117C112.358 114.117 111.696 113.805 111.188 113.18C110.68 112.551 110.426 111.742 110.426 110.754V110.338C110.426 108.768 110.76 107.568 111.428 106.74C112.1 105.908 113.098 105.482 114.422 105.463H114.616ZM113.192 109.307C112.821 109.307 112.479 109.418 112.167 109.641C111.854 109.863 111.637 110.143 111.516 110.479V110.877C111.516 111.58 111.674 112.146 111.991 112.576C112.307 113.006 112.702 113.221 113.174 113.221C113.663 113.221 114.045 113.041 114.323 112.682C114.604 112.322 114.745 111.852 114.745 111.27C114.745 110.684 114.602 110.211 114.317 109.852C114.036 109.488 113.661 109.307 113.192 109.307ZM117.598 109.723L118.032 105.469H122.403V106.471H118.952L118.694 108.797C119.112 108.551 119.586 108.428 120.118 108.428C120.895 108.428 121.512 108.686 121.969 109.201C122.426 109.713 122.655 110.406 122.655 111.281C122.655 112.16 122.417 112.854 121.94 113.361C121.467 113.865 120.805 114.117 119.954 114.117C119.2 114.117 118.584 113.908 118.108 113.49C117.631 113.072 117.36 112.494 117.293 111.756H118.319C118.385 112.244 118.559 112.613 118.84 112.863C119.122 113.109 119.493 113.232 119.954 113.232C120.458 113.232 120.852 113.061 121.137 112.717C121.426 112.373 121.571 111.898 121.571 111.293C121.571 110.723 121.415 110.266 121.102 109.922C120.793 109.574 120.381 109.4 119.866 109.4C119.393 109.4 119.022 109.504 118.752 109.711L118.465 109.945L117.598 109.723Z" fill="#8794BA"/>
<path d="M98.145 167.135H99.3286V168.02H98.145V170H97.0552V168.02H93.1704V167.381L96.9907 161.469H98.145V167.135ZM94.4009 167.135H97.0552V162.951L96.9263 163.186L94.4009 167.135ZM100.805 165.723L101.239 161.469H105.61V162.471H102.159L101.901 164.797C102.319 164.551 102.793 164.428 103.325 164.428C104.102 164.428 104.719 164.686 105.176 165.201C105.633 165.713 105.862 166.406 105.862 167.281C105.862 168.16 105.624 168.854 105.147 169.361C104.674 169.865 104.012 170.117 103.161 170.117C102.407 170.117 101.792 169.908 101.315 169.49C100.838 169.072 100.567 168.494 100.5 167.756H101.526C101.592 168.244 101.766 168.613 102.047 168.863C102.329 169.109 102.7 169.232 103.161 169.232C103.665 169.232 104.059 169.061 104.344 168.717C104.633 168.373 104.778 167.898 104.778 167.293C104.778 166.723 104.622 166.266 104.309 165.922C104 165.574 103.588 165.4 103.073 165.4C102.6 165.4 102.229 165.504 101.959 165.711L101.672 165.945L100.805 165.723ZM109.413 166.818H106.553V165.934H109.413V166.818ZM110.86 165.723L111.293 161.469H115.665V162.471H112.213L111.956 164.797C112.374 164.551 112.848 164.428 113.379 164.428C114.157 164.428 114.774 164.686 115.231 165.201C115.688 165.713 115.917 166.406 115.917 167.281C115.917 168.16 115.678 168.854 115.202 169.361C114.729 169.865 114.067 170.117 113.215 170.117C112.461 170.117 111.846 169.908 111.37 169.49C110.893 169.072 110.622 168.494 110.555 167.756H111.581C111.647 168.244 111.821 168.613 112.102 168.863C112.383 169.109 112.754 169.232 113.215 169.232C113.719 169.232 114.114 169.061 114.399 168.717C114.688 168.373 114.833 167.898 114.833 167.293C114.833 166.723 114.676 166.266 114.364 165.922C114.055 165.574 113.643 165.4 113.127 165.4C112.655 165.4 112.284 165.504 112.014 165.711L111.727 165.945L110.86 165.723ZM121.676 167.135H122.86V168.02H121.676V170H120.586V168.02H116.702V167.381L120.522 161.469H121.676V167.135ZM117.932 167.135H120.586V162.951L120.458 163.186L117.932 167.135Z" fill="#8794BA"/>
<path d="M95.145 221.207H95.9595C96.4712 221.199 96.8735 221.064 97.1665 220.803C97.4595 220.541 97.606 220.188 97.606 219.742C97.606 218.742 97.1079 218.242 96.1118 218.242C95.6431 218.242 95.2681 218.377 94.9868 218.646C94.7095 218.912 94.5708 219.266 94.5708 219.707H93.4868C93.4868 219.031 93.7329 218.471 94.2251 218.025C94.7212 217.576 95.3501 217.352 96.1118 217.352C96.9165 217.352 97.5474 217.564 98.0044 217.99C98.4614 218.416 98.6899 219.008 98.6899 219.766C98.6899 220.137 98.5688 220.496 98.3267 220.844C98.0884 221.191 97.7622 221.451 97.3481 221.623C97.8169 221.771 98.1782 222.018 98.4321 222.361C98.6899 222.705 98.8188 223.125 98.8188 223.621C98.8188 224.387 98.5688 224.994 98.0688 225.443C97.5688 225.893 96.9185 226.117 96.1177 226.117C95.3169 226.117 94.6646 225.9 94.1606 225.467C93.6606 225.033 93.4106 224.461 93.4106 223.75H94.5005C94.5005 224.199 94.647 224.559 94.9399 224.828C95.2329 225.098 95.6255 225.232 96.1177 225.232C96.6411 225.232 97.0415 225.096 97.3188 224.822C97.5962 224.549 97.7349 224.156 97.7349 223.645C97.7349 223.148 97.5825 222.768 97.2778 222.502C96.9731 222.236 96.5337 222.1 95.9595 222.092H95.145V221.207ZM100.805 221.723L101.239 217.469H105.61V218.471H102.159L101.901 220.797C102.319 220.551 102.793 220.428 103.325 220.428C104.102 220.428 104.719 220.686 105.176 221.201C105.633 221.713 105.862 222.406 105.862 223.281C105.862 224.16 105.624 224.854 105.147 225.361C104.674 225.865 104.012 226.117 103.161 226.117C102.407 226.117 101.792 225.908 101.315 225.49C100.838 225.072 100.567 224.494 100.5 223.756H101.526C101.592 224.244 101.766 224.613 102.047 224.863C102.329 225.109 102.7 225.232 103.161 225.232C103.665 225.232 104.059 225.061 104.344 224.717C104.633 224.373 104.778 223.898 104.778 223.293C104.778 222.723 104.622 222.266 104.309 221.922C104 221.574 103.588 221.4 103.073 221.4C102.6 221.4 102.229 221.504 101.959 221.711L101.672 221.945L100.805 221.723ZM109.413 222.818H106.553V221.934H109.413V222.818ZM114.938 223.135H116.122V224.02H114.938V226H113.848V224.02H109.963V223.381L113.784 217.469H114.938V223.135ZM111.194 223.135H113.848V218.951L113.719 219.186L111.194 223.135ZM121.676 223.135H122.86V224.02H121.676V226H120.586V224.02H116.702V223.381L120.522 217.469H121.676V223.135ZM117.932 223.135H120.586V218.951L120.458 219.186L117.932 223.135Z" fill="#8794BA"/>
<path d="M99.1587 282H93.5688V281.221L96.522 277.939C96.9595 277.443 97.2603 277.041 97.4243 276.732C97.5923 276.42 97.6763 276.098 97.6763 275.766C97.6763 275.32 97.5415 274.955 97.272 274.67C97.0024 274.385 96.6431 274.242 96.1938 274.242C95.6548 274.242 95.2349 274.396 94.9341 274.705C94.6372 275.01 94.4888 275.436 94.4888 275.982H93.4048C93.4048 275.197 93.6567 274.562 94.1606 274.078C94.6685 273.594 95.3462 273.352 96.1938 273.352C96.9868 273.352 97.6138 273.561 98.0747 273.979C98.5356 274.393 98.7661 274.945 98.7661 275.637C98.7661 276.477 98.231 277.477 97.1606 278.637L94.8755 281.115H99.1587V282ZM100.805 277.723L101.239 273.469H105.61V274.471H102.159L101.901 276.797C102.319 276.551 102.793 276.428 103.325 276.428C104.102 276.428 104.719 276.686 105.176 277.201C105.633 277.713 105.862 278.406 105.862 279.281C105.862 280.16 105.624 280.854 105.147 281.361C104.674 281.865 104.012 282.117 103.161 282.117C102.407 282.117 101.792 281.908 101.315 281.49C100.838 281.072 100.567 280.494 100.5 279.756H101.526C101.592 280.244 101.766 280.613 102.047 280.863C102.329 281.109 102.7 281.232 103.161 281.232C103.665 281.232 104.059 281.061 104.344 280.717C104.633 280.373 104.778 279.898 104.778 279.293C104.778 278.723 104.622 278.266 104.309 277.922C104 277.574 103.588 277.4 103.073 277.4C102.6 277.4 102.229 277.504 101.959 277.711L101.672 277.945L100.805 277.723ZM109.413 278.818H106.553V277.934H109.413V278.818ZM111.938 277.207H112.752C113.264 277.199 113.667 277.064 113.959 276.803C114.252 276.541 114.399 276.188 114.399 275.742C114.399 274.742 113.901 274.242 112.905 274.242C112.436 274.242 112.061 274.377 111.78 274.646C111.502 274.912 111.364 275.266 111.364 275.707H110.28C110.28 275.031 110.526 274.471 111.018 274.025C111.514 273.576 112.143 273.352 112.905 273.352C113.709 273.352 114.34 273.564 114.797 273.99C115.254 274.416 115.483 275.008 115.483 275.766C115.483 276.137 115.362 276.496 115.12 276.844C114.881 277.191 114.555 277.451 114.141 277.623C114.61 277.771 114.971 278.018 115.225 278.361C115.483 278.705 115.612 279.125 115.612 279.621C115.612 280.387 115.362 280.994 114.862 281.443C114.362 281.893 113.711 282.117 112.911 282.117C112.11 282.117 111.458 281.9 110.954 281.467C110.454 281.033 110.204 280.461 110.204 279.75H111.293C111.293 280.199 111.44 280.559 111.733 280.828C112.026 281.098 112.418 281.232 112.911 281.232C113.434 281.232 113.834 281.096 114.112 280.822C114.389 280.549 114.528 280.156 114.528 279.645C114.528 279.148 114.375 278.768 114.071 278.502C113.766 278.236 113.327 278.1 112.752 278.092H111.938V277.207ZM121.676 279.135H122.86V280.02H121.676V282H120.586V280.02H116.702V279.381L120.522 273.469H121.676V279.135ZM117.932 279.135H120.586V274.951L120.458 275.186L117.932 279.135Z" fill="#8794BA"/>
<path d="M97.1313 338H96.0415V330.775L93.856 331.578V330.594L96.9614 329.428H97.1313V338ZM105.481 331.695C105.481 332.121 105.368 332.5 105.141 332.832C104.918 333.164 104.616 333.424 104.233 333.611C104.678 333.803 105.03 334.082 105.288 334.449C105.549 334.816 105.68 335.232 105.68 335.697C105.68 336.436 105.43 337.023 104.93 337.461C104.434 337.898 103.78 338.117 102.967 338.117C102.147 338.117 101.489 337.898 100.993 337.461C100.5 337.02 100.254 336.432 100.254 335.697C100.254 335.236 100.379 334.82 100.629 334.449C100.883 334.078 101.233 333.797 101.678 333.605C101.299 333.418 101 333.158 100.782 332.826C100.563 332.494 100.454 332.117 100.454 331.695C100.454 330.977 100.684 330.406 101.145 329.984C101.606 329.562 102.213 329.352 102.967 329.352C103.717 329.352 104.323 329.562 104.784 329.984C105.249 330.406 105.481 330.977 105.481 331.695ZM104.596 335.674C104.596 335.197 104.444 334.809 104.139 334.508C103.838 334.207 103.444 334.057 102.956 334.057C102.467 334.057 102.075 334.205 101.778 334.502C101.485 334.799 101.338 335.189 101.338 335.674C101.338 336.158 101.481 336.539 101.766 336.816C102.055 337.094 102.456 337.232 102.967 337.232C103.475 337.232 103.874 337.094 104.163 336.816C104.452 336.535 104.596 336.154 104.596 335.674ZM102.967 330.242C102.542 330.242 102.196 330.375 101.93 330.641C101.668 330.902 101.538 331.26 101.538 331.713C101.538 332.146 101.667 332.498 101.924 332.768C102.186 333.033 102.534 333.166 102.967 333.166C103.401 333.166 103.747 333.033 104.004 332.768C104.266 332.498 104.397 332.146 104.397 331.713C104.397 331.279 104.262 330.926 103.993 330.652C103.723 330.379 103.381 330.242 102.967 330.242ZM109.413 334.818H106.553V333.934H109.413V334.818ZM115.952 338H110.362V337.221L113.315 333.939C113.752 333.443 114.053 333.041 114.217 332.732C114.385 332.42 114.469 332.098 114.469 331.766C114.469 331.32 114.334 330.955 114.065 330.67C113.795 330.385 113.436 330.242 112.987 330.242C112.448 330.242 112.028 330.396 111.727 330.705C111.43 331.01 111.282 331.436 111.282 331.982H110.198C110.198 331.197 110.45 330.562 110.954 330.078C111.461 329.594 112.139 329.352 112.987 329.352C113.78 329.352 114.407 329.561 114.868 329.979C115.329 330.393 115.559 330.945 115.559 331.637C115.559 332.477 115.024 333.477 113.954 334.637L111.668 337.115H115.952V338ZM121.676 335.135H122.86V336.02H121.676V338H120.586V336.02H116.702V335.381L120.522 329.469H121.676V335.135ZM117.932 335.135H120.586V330.951L120.458 331.186L117.932 335.135Z" fill="#8794BA"/>
<path d="M134.129 96H390.629C393.667 96 396.129 98.4624 396.129 101.5V101.5C396.129 104.538 393.667 107 390.629 107H134.129V96Z" fill="#EF2A82"/>
<path d="M134.129 153H303.629C306.667 153 309.129 155.462 309.129 158.5V158.5C309.129 161.538 306.667 164 303.629 164H134.129V153Z" fill="#EF2A82"/>
<path d="M134.129 210H144.629C147.667 210 150.129 212.462 150.129 215.5V215.5C150.129 218.538 147.667 221 144.629 221H134.129V210Z" fill="#EF2A82"/>
<path d="M134.129 267H176.629C179.667 267 182.129 269.462 182.129 272.5V272.5C182.129 275.538 179.667 278 176.629 278H134.129V267Z" fill="#EF2A82"/>
<path d="M134.129 324H336.629C339.667 324 342.129 326.462 342.129 329.5V329.5C342.129 332.538 339.667 335 336.629 335H134.129V324Z" fill="#EF2A82"/>
<path d="M134.129 110H276.629C279.667 110 282.129 112.462 282.129 115.5V115.5C282.129 118.538 279.667 121 276.629 121H134.129V110Z" fill="#0088F0"/>
<path d="M134.129 167H336.629C339.667 167 342.129 169.462 342.129 172.5V172.5C342.129 175.538 339.667 178 336.629 178H134.129V167Z" fill="#0088F0"/>
<path d="M134.129 224H176.629C179.667 224 182.129 226.462 182.129 229.5V229.5C182.129 232.538 179.667 235 176.629 235H134.129V224Z" fill="#0088F0"/>
<path d="M134.129 281H467.629C470.667 281 473.129 283.462 473.129 286.5V286.5C473.129 289.538 470.667 292 467.629 292H134.129V281Z" fill="#0088F0"/>
<path d="M134.129 338H524.629C527.667 338 530.129 340.462 530.129 343.5V343.5C530.129 346.538 527.667 349 524.629 349H134.129V338Z" fill="#0088F0"/>
<defs>
<filter id="filter0_d" x="0.129395" y="0" width="670" height="480" filterUnits="userSpaceOnUse" color-interpolation-filters="sRGB">
<feFlood flood-opacity="0" result="BackgroundImageFix"/>
<feColorMatrix in="SourceAlpha" type="matrix" values="0 0 0 0 0 0 0 0 0 0 0 0 0 0 0 0 0 0 127 0"/>
<feMorphology radius="15" operator="erode" in="SourceAlpha" result="effect1_dropShadow"/>
<feOffset dy="18"/>
<feGaussianBlur stdDeviation="25"/>
<feColorMatrix type="matrix" values="0 0 0 0 0.0996452 0 0 0 0 0.164326 0 0 0 0 0.350284 0 0 0 0.2 0"/>
<feBlend mode="normal" in2="BackgroundImageFix" result="effect1_dropShadow"/>
<feBlend mode="normal" in="SourceGraphic" in2="effect1_dropShadow" result="shape"/>
</filter>
</defs>
</svg>
