<svg width="61" height="60" viewBox="0 0 61 60" fill="none" xmlns="http://www.w3.org/2000/svg">
<g clip-path="url(#clip0)">
<path d="M47.3772 6.71074C42.3631 2.99684 36.4128 1.03453 30.1696 1.03453C24.4769 1.03453 18.8213 2.67316 14.612 5.48484V1.03453C14.612 0.463477 14.1486 0 13.5775 0C13.0064 0 12.543 0.463477 12.543 1.03453V7.54242C12.543 7.94379 12.7746 8.30895 13.1378 8.47863C13.5009 8.64937 13.9302 8.59453 14.2386 8.33789C18.184 5.06063 24.1396 3.10336 30.1696 3.10336C35.9658 3.10336 41.4899 4.92609 46.1461 8.3741C46.3313 8.51062 46.5464 8.57684 46.7607 8.57684C47.0772 8.57684 47.3896 8.43199 47.5923 8.15789C47.9328 7.69863 47.8366 7.05105 47.3772 6.71074Z" fill="#EF2A82"/>
<path d="M59.0948 12.4138H52.5869C52.1856 12.4138 51.8224 12.6465 51.6518 13.0097C51.481 13.3727 51.5359 13.8021 51.7925 14.1104C55.0698 18.0549 57.027 24.0104 57.027 30.0415C57.027 35.8377 55.2043 41.3618 51.7563 46.0169C51.416 46.4762 51.5122 47.1238 51.9715 47.4642C52.1566 47.6007 52.3718 47.6669 52.586 47.6669C52.9025 47.6669 53.2149 47.5221 53.4187 47.248C57.1325 42.2339 59.0949 36.2834 59.0949 30.0404C59.0949 24.3477 57.4563 18.6911 54.6446 14.4828H59.0949C59.666 14.4828 60.1295 14.0193 60.1295 13.4483C60.1293 12.8772 59.6659 12.4138 59.0948 12.4138Z" fill="#EF2A82"/>
<path d="M47.1219 51.5224C46.7589 51.3527 46.3306 51.4055 46.0212 51.6632C42.0757 54.9404 36.1201 56.8977 30.0901 56.8977C24.2929 56.8977 18.7688 55.075 14.1136 51.627C13.6543 51.2866 13.0068 51.3829 12.6663 51.8421C12.326 52.3014 12.4222 52.949 12.8815 53.2894C17.8956 57.0032 23.846 58.9656 30.0891 58.9656C35.7818 58.9656 41.4374 57.327 45.6466 54.5153V58.9656C45.6466 59.5366 46.1101 60.0001 46.6812 60.0001C47.2522 60.0001 47.7157 59.5366 47.7157 58.9656V52.4577C47.7157 52.0562 47.484 51.6911 47.1219 51.5224Z" fill="#EF2A82"/>
<path d="M8.46729 45.8907C5.19002 41.9453 3.23275 35.9907 3.23275 29.9597C3.23275 24.1635 5.05549 18.6394 8.50244 13.9842C8.84275 13.5249 8.74654 12.8774 8.28728 12.5369C7.82803 12.1956 7.18045 12.2928 6.84002 12.7521C3.12623 17.7662 1.16393 23.7165 1.16393 29.9597C1.16393 35.6524 2.80256 41.308 5.61424 45.5172H1.16393C0.592871 45.5172 0.129395 45.9807 0.129395 46.5518C0.129395 47.1228 0.592871 47.5863 1.16393 47.5863H7.67182C8.07318 47.5863 8.43728 47.3546 8.60803 46.9915C8.77877 46.6283 8.72393 46.1989 8.46729 45.8907Z" fill="#EF2A82"/>
<path d="M31.1639 19.6531C31.1629 19.082 30.6994 18.6206 30.1294 18.6206C30.1294 18.6206 30.1283 18.6206 30.1273 18.6206C29.5552 18.6217 29.0938 19.0861 29.0949 19.6572L29.1197 30.002C29.1207 30.5731 29.5842 31.0344 30.1542 31.0344C30.1553 31.0344 30.1563 31.0344 30.1563 31.0344C30.7284 31.0334 31.1898 30.569 31.1888 29.9979L31.1639 19.6531Z" fill="#EF2A82"/>
<path d="M30.1542 28.9655H23.9225C23.3514 28.9655 22.8879 29.4289 22.8879 30C22.8879 30.571 23.3514 31.0345 23.9225 31.0345H30.1542C30.7252 31.0345 31.1887 30.571 31.1887 30C31.1887 29.4289 30.7252 28.9655 30.1542 28.9655Z" fill="#EF2A82"/>
<path d="M30.1294 8.27594C18.1511 8.27594 8.40527 18.0208 8.40527 30C8.40527 41.9793 18.1511 51.7241 30.1294 51.7241C42.1086 51.7241 51.8535 41.9793 51.8535 30C51.8535 18.0208 42.1086 8.27594 30.1294 8.27594ZM30.1294 49.6552C19.2911 49.6552 10.4742 40.8384 10.4742 30C10.4742 19.1617 19.2911 10.3449 30.1294 10.3449C40.9677 10.3449 49.7845 19.1617 49.7845 30C49.7845 40.8384 40.9677 49.6552 30.1294 49.6552Z" fill="#EF2A82"/>
<path d="M15.6467 28.9655H13.5777C13.0067 28.9655 12.5432 29.4289 12.5432 30C12.5432 30.571 13.0067 31.0345 13.5777 31.0345H15.6467C16.2177 31.0345 16.6812 30.571 16.6812 30C16.6812 29.4289 16.2177 28.9655 15.6467 28.9655Z" fill="#EF2A82"/>
<path d="M46.681 28.9655H44.612C44.041 28.9655 43.5775 29.4289 43.5775 30C43.5775 30.571 44.041 31.0345 44.612 31.0345H46.681C47.252 31.0345 47.7155 30.571 47.7155 30C47.7155 29.4289 47.252 28.9655 46.681 28.9655Z" fill="#EF2A82"/>
<path d="M30.1294 43.4483C29.5583 43.4483 29.0948 43.9118 29.0948 44.4828V46.5518C29.0948 47.1228 29.5583 47.5863 30.1294 47.5863C30.7004 47.5863 31.1639 47.1228 31.1639 46.5518V44.4828C31.1639 43.9117 30.7004 43.4483 30.1294 43.4483Z" fill="#EF2A82"/>
<path d="M30.1294 12.4138C29.5583 12.4138 29.0948 12.8772 29.0948 13.4483V15.5172C29.0948 16.0883 29.5583 16.5518 30.1294 16.5518C30.7004 16.5518 31.1639 16.0883 31.1639 15.5172V13.4483C31.1639 12.8772 30.7004 12.4138 30.1294 12.4138Z" fill="#EF2A82"/>
<path d="M20.516 39.6135C20.1125 39.2089 19.4576 39.2089 19.0532 39.6135L17.694 40.9718C17.2905 41.3753 17.2905 42.0301 17.694 42.4345C17.8956 42.6362 18.1605 42.7376 18.4253 42.7376C18.6902 42.7376 18.955 42.6373 19.1567 42.4345L20.516 41.0762C20.9194 40.6727 20.9194 40.0179 20.516 39.6135Z" fill="#EF2A82"/>
<path d="M42.5639 17.5655C42.1594 17.161 41.5056 17.161 41.1012 17.5655L39.7429 18.9238C39.3383 19.3283 39.3383 19.9821 39.7429 20.3865C39.9445 20.5882 40.2094 20.6896 40.4742 20.6896C40.7391 20.6896 41.0039 20.5882 41.2056 20.3865L42.5639 19.0282C42.9683 18.6238 42.9683 17.97 42.5639 17.5655Z" fill="#EF2A82"/>
<path d="M42.5639 40.9717L41.2056 39.6134C40.8011 39.2088 40.1473 39.2088 39.7429 39.6134C39.3383 40.0179 39.3383 40.6717 39.7429 41.0761L41.1012 42.4344C41.3029 42.6361 41.5677 42.7375 41.8325 42.7375C42.0974 42.7375 42.3622 42.6372 42.5639 42.4344C42.9683 42.03 42.9683 41.3762 42.5639 40.9717Z" fill="#EF2A82"/>
<path d="M20.5159 18.9238L19.1566 17.5655C18.7532 17.161 18.0983 17.161 17.6939 17.5655C17.2894 17.97 17.2894 18.6247 17.6939 19.0282L19.0532 20.3865C19.2548 20.5882 19.5197 20.6896 19.7845 20.6896C20.0494 20.6896 20.3142 20.5882 20.5159 20.3865C20.9204 19.9821 20.9204 19.3273 20.5159 18.9238Z" fill="#EF2A82"/>
</g>
<defs>
<clipPath id="clip0">
<rect width="60" height="60" fill="white" transform="translate(0.129395)"/>
</clipPath>
</defs>
</svg>
