<svg width="61" height="60" viewBox="0 0 61 60" fill="none" xmlns="http://www.w3.org/2000/svg">
<g clip-path="url(#clip0)">
<path d="M19.1929 23.3911C19.0329 23.0771 18.7199 22.8711 18.3689 22.8481L9.9566 22.2872C9.52066 22.2442 9.11766 22.5142 8.95864 22.9201L2.89412 38.4189C2.73112 38.8349 2.86413 39.3079 3.22014 39.5788C3.39814 39.7148 3.61213 39.7829 3.82505 39.7829C4.03599 39.7829 4.24704 39.7169 4.42505 39.5829L9.45867 35.8083L12.3895 36.3942C12.8675 36.4892 13.3454 36.2272 13.5194 35.7703C15.0933 31.6476 16.9881 27.8139 19.1489 24.3772C19.336 24.079 19.3529 23.704 19.1929 23.3911ZM11.9574 34.2682L9.41168 33.7593C9.13371 33.7043 8.84368 33.7703 8.61575 33.9402L6.03695 35.874L10.5535 24.3309L16.5911 24.7329C14.8512 27.6777 13.2973 30.8754 11.9574 34.2682Z" fill="#EF2A82"/>
<path d="M37.8424 50.1741L37.2814 41.7607C37.2574 41.4086 37.0514 41.0957 36.7375 40.9357C36.4245 40.7757 36.0495 40.7916 35.7516 40.9796C32.3138 43.1404 28.4811 45.0353 24.3585 46.6091C23.9025 46.7821 23.6385 47.2601 23.7346 47.739L24.3205 50.6699L20.5458 55.7024C20.2778 56.0604 20.2789 56.5524 20.5498 56.9084C20.7428 57.1623 21.0398 57.3033 21.3457 57.3033C21.4677 57.3033 21.5908 57.2803 21.7106 57.2363L37.2095 51.1718C37.6154 51.013 37.8713 50.6089 37.8424 50.1741ZM24.2544 54.0908L26.1882 51.512C26.3583 51.285 26.4242 50.9951 26.3682 50.716L25.8593 48.1712C29.253 46.8313 32.4497 45.2774 35.3945 43.5376L35.7975 49.5741L24.2544 54.0908Z" fill="#EF2A82"/>
<path d="M29.1272 30.0005H22.3897C22.0268 30.0005 21.6928 30.1975 21.5157 30.5145L13.0593 45.7094C12.8394 46.1054 12.9133 46.6013 13.2393 46.9153C13.4304 47.0993 13.6812 47.1953 13.9333 47.1953C14.1113 47.1953 14.2903 47.1483 14.4502 47.0503L29.6451 37.8551C29.944 37.6741 30.1271 37.3501 30.1271 37.0002V31.0005C30.1272 30.4486 29.6792 30.0005 29.1272 30.0005ZM28.1274 36.4371L16.6393 43.3896L22.9768 32.0014V32.0003H28.1274V36.4371Z" fill="#EF2A82"/>
<path d="M60.079 0.96374C60.038 0.47683 59.6521 0.0908184 59.165 0.0498031C58.8331 0.0237878 25.9046 -2.27506 11.6517 35.0562C11.5107 35.4252 11.5997 35.8411 11.8787 36.1201L16.6333 40.8747C16.8563 41.0977 17.1683 41.1997 17.4813 41.1577C17.7923 41.1127 18.0643 40.9248 18.2163 40.6497L22.9799 32.0004H28.1275V36.4491L19.4262 41.9426C19.1692 42.1056 19.0002 42.3756 18.9663 42.6776C18.9323 42.9796 19.0382 43.2805 19.2532 43.4956L24.0078 48.2502C24.1989 48.4412 24.4539 48.5432 24.7148 48.5432C24.8348 48.5432 24.9558 48.5222 25.0718 48.4772C62.4048 34.2232 60.107 1.29479 60.079 0.96374ZM54.8334 18.7045C51.3246 27.3857 43.2952 39.1879 24.9616 46.3764L21.5519 42.9666L29.6613 37.847C29.9512 37.663 30.1272 37.344 30.1272 37.001V31.0014C30.1272 30.4495 29.6792 30.0015 29.1273 30.0015H22.3877C22.0228 30.0015 21.6878 30.2004 21.5118 30.5194L17.1051 38.5208L13.7524 35.167C26.2645 3.24758 52.9345 1.94166 58.119 2.01467C58.1561 4.34656 57.9421 11.012 54.8334 18.7045Z" fill="#EF2A82"/>
<path d="M17.2581 44.1645C17.041 43.8766 16.6951 43.7365 16.3561 43.7725C16.3911 43.4325 16.2511 43.0876 15.9641 42.8705C14.4563 41.7307 12.5104 41.3517 10.6236 41.8296C8.62072 42.3385 6.98281 43.7044 6.13087 45.5793L0.219399 58.5853C0.0464322 58.9652 0.127408 59.4123 0.422366 59.7062C0.61338 59.8982 0.869315 59.9992 1.12935 59.9992C1.26939 59.9992 1.41036 59.9692 1.54337 59.9092L14.5494 53.9967C16.4232 53.1458 17.7892 51.5079 18.2981 49.505C18.777 47.6202 18.3981 45.6734 17.2581 44.1645ZM16.3602 49.0131C16.0022 50.424 15.0403 51.5769 13.7224 52.1769L3.1432 56.9855L7.95182 46.4053C8.55076 45.0875 9.7047 44.1255 11.1156 43.7676C11.4866 43.6736 11.8595 43.6275 12.2275 43.6275C12.8504 43.6275 13.4593 43.7606 14.0143 44.0195L13.0624 45.7044C12.8414 46.0954 12.9085 46.5864 13.2264 46.9034C13.5443 47.2224 14.0353 47.2883 14.4253 47.0673L16.1102 46.1144C16.5201 46.9963 16.6132 48.0151 16.3602 49.0131Z" fill="#EF2A82"/>
<path d="M60.0789 0.964828C60.0379 0.477918 59.6519 0.0919066 59.165 0.0508914C58.775 0.019837 49.5056 -0.682109 38.6045 4.33956C38.3075 4.4755 38.0965 4.74948 38.0385 5.07151C37.9805 5.39353 38.0845 5.72341 38.3155 5.95439L54.1744 21.8132C54.3634 22.0022 54.6184 22.1062 54.8813 22.1062C54.9403 22.1062 54.9993 22.1011 55.0583 22.0912C55.3803 22.0332 55.6532 21.8222 55.7902 21.5252C60.8128 10.624 60.1109 1.35377 60.0789 0.964828ZM54.5573 19.3664L40.7624 5.57142C48.7428 2.20267 55.7312 1.97064 58.12 2.01072C58.16 4.40155 57.935 11.368 54.5573 19.3664Z" fill="#EF2A82"/>
<path d="M44.2899 15.8387C40.9271 12.4759 35.4566 12.4759 32.0939 15.8387C28.7311 19.2014 28.7311 24.6719 32.0939 28.0347C33.7748 29.7166 35.9836 30.5566 38.1914 30.5566C40.4003 30.5566 42.6081 29.7156 44.2899 28.0347C47.6527 24.6719 47.6527 19.2013 44.2899 15.8387ZM42.8761 26.6207C40.2933 29.2035 36.0906 29.2035 33.5078 26.6207C30.925 24.038 30.925 19.8353 33.5078 17.2525C34.7988 15.9616 36.4956 15.3157 38.1915 15.3157C39.8875 15.3157 41.5843 15.9616 42.8762 17.2525C45.4588 19.8353 45.4588 24.038 42.8761 26.6207Z" fill="#EF2A82"/>
<path d="M40.1794 23.925C39.0834 25.0229 37.2996 25.0219 36.2026 23.925C35.1067 22.8282 35.1067 21.0453 36.2026 19.9483C37.2986 18.8524 39.0824 18.8514 40.1794 19.9483C40.5694 20.3392 41.2033 20.3392 41.5932 19.9483C41.9841 19.5574 41.9841 18.9254 41.5932 18.5344C39.7183 16.6586 36.6646 16.6586 34.7888 18.5344C32.9129 20.4102 32.9129 23.4631 34.7888 25.3389C35.7267 26.2768 36.9597 26.7458 38.1915 26.7458C39.4244 26.7458 40.6563 26.2768 41.5932 25.3389C41.9841 24.9479 41.9841 24.316 41.5932 23.925C41.2032 23.5341 40.5694 23.5341 40.1794 23.925Z" fill="#EF2A82"/>
</g>
<defs>
<clipPath id="clip0">
<rect width="60" height="60" fill="white" transform="translate(0.129395)"/>
</clipPath>
</defs>
</svg>
