<svg width="671" height="480" viewBox="0 0 671 480" fill="none" xmlns="http://www.w3.org/2000/svg">
<g filter="url(#filter0_d)">
<rect x="35.2588" y="17" width="600" height="410" rx="30" fill="white"/>
</g>
<path d="M146.274 157.077L255.259 94.1547L364.244 157.077V282.923L255.259 345.845L146.274 282.923V157.077Z" stroke="#EEEEF7" stroke-width="2"/>
<path d="M184.379 179.077L255.259 138.155L326.139 179.077V260.923L255.259 301.845L184.379 260.923V179.077Z" stroke="#EEEEF7" stroke-width="2"/>
<path d="M197.672 187.015L255.622 139.292L337.338 171.394L343.19 269.403L255.604 321.468L191.336 254.278L197.672 187.015Z" stroke="#0088F0" stroke-width="4"/>
<path d="M171.78 172.392L254.621 126.637L300.498 194.966L330.701 264H255.533L203.049 249.338L171.78 172.392Z" stroke="#EF2A82" stroke-width="4"/>
<path d="M231.144 206.077L255.259 192.155L279.374 206.077V233.923L255.259 247.845L231.144 233.923V206.077Z" stroke="#EEEEF7" stroke-width="2"/>
<path d="M495.767 153.252H498.443C500.125 153.226 501.447 152.783 502.409 151.923C503.372 151.063 503.853 149.902 503.853 148.439C503.853 145.153 502.217 143.51 498.944 143.51C497.404 143.51 496.171 143.953 495.247 144.838C494.336 145.711 493.88 146.873 493.88 148.323H490.319C490.319 146.103 491.127 144.261 492.745 142.798C494.375 141.322 496.441 140.584 498.944 140.584C501.588 140.584 503.661 141.283 505.162 142.682C506.664 144.081 507.415 146.026 507.415 148.516C507.415 149.735 507.017 150.916 506.221 152.058C505.438 153.2 504.366 154.054 503.006 154.619C504.546 155.106 505.733 155.915 506.568 157.044C507.415 158.174 507.838 159.554 507.838 161.184C507.838 163.699 507.017 165.695 505.374 167.171C503.731 168.647 501.594 169.385 498.963 169.385C496.332 169.385 494.188 168.673 492.533 167.248C490.89 165.823 490.068 163.943 490.068 161.607H493.649C493.649 163.083 494.131 164.264 495.093 165.15C496.056 166.035 497.346 166.478 498.963 166.478C500.683 166.478 501.998 166.029 502.91 165.13C503.821 164.232 504.277 162.942 504.277 161.261C504.277 159.631 503.776 158.379 502.775 157.506C501.774 156.634 500.33 156.184 498.443 156.159H495.767V153.252ZM527.764 159.586H531.653V162.493H527.764V169H524.183V162.493H511.419V160.394L523.972 140.969H527.764V159.586ZM515.462 159.586H524.183V145.84L523.76 146.61L515.462 159.586ZM534.56 146.359C534.56 144.678 535.093 143.292 536.158 142.201C537.236 141.11 538.616 140.564 540.298 140.564C542.005 140.564 543.384 141.116 544.437 142.22C545.502 143.311 546.035 144.729 546.035 146.475V147.842C546.035 149.536 545.496 150.922 544.418 152C543.352 153.066 541.992 153.598 540.336 153.598C538.668 153.598 537.288 153.066 536.197 152C535.106 150.922 534.56 149.491 534.56 147.707V146.359ZM537.217 147.842C537.217 148.843 537.5 149.671 538.064 150.325C538.629 150.967 539.386 151.288 540.336 151.288C541.247 151.288 541.979 150.973 542.531 150.345C543.096 149.716 543.378 148.856 543.378 147.765V146.359C543.378 145.358 543.102 144.53 542.55 143.876C541.998 143.221 541.247 142.894 540.298 142.894C539.348 142.894 538.597 143.221 538.045 143.876C537.493 144.53 537.217 145.384 537.217 146.436V147.842ZM548.21 162.127C548.21 160.446 548.743 159.066 549.808 157.988C550.886 156.897 552.266 156.351 553.947 156.351C555.629 156.351 557.009 156.89 558.087 157.968C559.165 159.047 559.704 160.478 559.704 162.262V163.629C559.704 165.31 559.165 166.696 558.087 167.787C557.021 168.865 555.654 169.404 553.986 169.404C552.317 169.404 550.938 168.872 549.847 167.806C548.756 166.728 548.21 165.297 548.21 163.513V162.127ZM550.867 163.629C550.867 164.643 551.149 165.477 551.714 166.131C552.279 166.773 553.036 167.094 553.986 167.094C554.91 167.094 555.648 166.78 556.2 166.151C556.752 165.509 557.028 164.643 557.028 163.552V162.127C557.028 161.113 556.745 160.285 556.181 159.643C555.629 159.002 554.884 158.681 553.947 158.681C553.036 158.681 552.292 159.002 551.714 159.643C551.149 160.272 550.867 161.126 550.867 162.204V163.629ZM541.145 166.882L539.123 165.612L552.812 143.703L554.833 144.973L541.145 166.882Z" fill="#EF2A82"/>
<path d="M489.059 195.157C489.059 194.226 489.24 193.388 489.604 192.644C489.973 191.899 490.482 191.325 491.133 190.921C491.789 190.517 492.536 190.314 493.374 190.314C494.669 190.314 495.715 190.763 496.512 191.659C497.314 192.556 497.716 193.748 497.716 195.236V195.351C497.716 196.276 497.537 197.108 497.18 197.847C496.828 198.579 496.321 199.15 495.659 199.561C495.003 199.971 494.247 200.176 493.392 200.176C492.103 200.176 491.057 199.728 490.254 198.831C489.457 197.935 489.059 196.748 489.059 195.271V195.157ZM490.693 195.351C490.693 196.405 490.937 197.252 491.423 197.891C491.915 198.529 492.571 198.849 493.392 198.849C494.218 198.849 494.874 198.526 495.36 197.882C495.847 197.231 496.09 196.323 496.09 195.157C496.09 194.114 495.841 193.271 495.343 192.626C494.851 191.976 494.194 191.65 493.374 191.65C492.571 191.65 491.924 191.97 491.432 192.608C490.939 193.247 490.693 194.161 490.693 195.351ZM507.788 195.351C507.788 196.798 507.457 197.964 506.795 198.849C506.133 199.733 505.236 200.176 504.105 200.176C502.951 200.176 502.043 199.81 501.381 199.077V203.656H499.755V190.49H501.24L501.319 191.545C501.981 190.725 502.901 190.314 504.079 190.314C505.222 190.314 506.124 190.745 506.786 191.606C507.454 192.468 507.788 193.666 507.788 195.201V195.351ZM506.162 195.166C506.162 194.094 505.934 193.247 505.477 192.626C505.02 192.005 504.393 191.694 503.596 191.694C502.611 191.694 501.873 192.131 501.381 193.004V197.548C501.867 198.415 502.611 198.849 503.613 198.849C504.393 198.849 505.011 198.541 505.468 197.926C505.931 197.305 506.162 196.385 506.162 195.166ZM512.068 188.188V190.49H513.844V191.747H512.068V197.645C512.068 198.025 512.147 198.312 512.306 198.506C512.464 198.693 512.733 198.787 513.114 198.787C513.302 198.787 513.56 198.752 513.888 198.682V200C513.46 200.117 513.044 200.176 512.64 200.176C511.913 200.176 511.365 199.956 510.996 199.517C510.627 199.077 510.442 198.453 510.442 197.645V191.747H508.711V190.49H510.442V188.188H512.068ZM517.518 200H515.892V190.49H517.518V200ZM515.76 187.968C515.76 187.704 515.839 187.481 515.997 187.3C516.161 187.118 516.401 187.027 516.718 187.027C517.034 187.027 517.274 187.118 517.438 187.3C517.603 187.481 517.685 187.704 517.685 187.968C517.685 188.231 517.603 188.451 517.438 188.627C517.274 188.803 517.034 188.891 516.718 188.891C516.401 188.891 516.161 188.803 515.997 188.627C515.839 188.451 515.76 188.231 515.76 187.968ZM519.697 195.157C519.697 194.226 519.879 193.388 520.242 192.644C520.611 191.899 521.121 191.325 521.771 190.921C522.428 190.517 523.175 190.314 524.013 190.314C525.308 190.314 526.354 190.763 527.15 191.659C527.953 192.556 528.354 193.748 528.354 195.236V195.351C528.354 196.276 528.176 197.108 527.818 197.847C527.467 198.579 526.96 199.15 526.298 199.561C525.642 199.971 524.886 200.176 524.03 200.176C522.741 200.176 521.695 199.728 520.893 198.831C520.096 197.935 519.697 196.748 519.697 195.271V195.157ZM521.332 195.351C521.332 196.405 521.575 197.252 522.062 197.891C522.554 198.529 523.21 198.849 524.03 198.849C524.856 198.849 525.513 198.526 525.999 197.882C526.485 197.231 526.729 196.323 526.729 195.157C526.729 194.114 526.479 193.271 525.981 192.626C525.489 191.976 524.833 191.65 524.013 191.65C523.21 191.65 522.562 191.97 522.07 192.608C521.578 193.247 521.332 194.161 521.332 195.351ZM531.932 190.49L531.984 191.686C532.711 190.771 533.66 190.314 534.832 190.314C536.842 190.314 537.855 191.448 537.873 193.716V200H536.247V193.707C536.241 193.021 536.083 192.515 535.772 192.187C535.468 191.858 534.99 191.694 534.34 191.694C533.812 191.694 533.35 191.835 532.951 192.116C532.553 192.397 532.242 192.767 532.02 193.224V200H530.394V190.49H531.932ZM549.967 200H548.332V189.163L545.054 190.367V188.891L549.712 187.142H549.967V200Z" fill="#8794BA"/>
<path d="M508.955 281H490.588V278.439L500.291 267.658C501.729 266.028 502.717 264.706 503.256 263.692C503.808 262.665 504.084 261.607 504.084 260.516C504.084 259.052 503.641 257.852 502.756 256.915C501.87 255.979 500.689 255.51 499.213 255.51C497.442 255.51 496.062 256.017 495.074 257.031C494.099 258.032 493.611 259.431 493.611 261.228H490.049C490.049 258.648 490.877 256.562 492.533 254.971C494.201 253.379 496.428 252.584 499.213 252.584C501.819 252.584 503.879 253.27 505.393 254.644C506.908 256.004 507.665 257.82 507.665 260.092C507.665 262.852 505.907 266.137 502.39 269.949L494.882 278.093H508.955V281ZM526.378 268.679C525.634 269.564 524.742 270.277 523.702 270.816C522.675 271.355 521.546 271.624 520.314 271.624C518.697 271.624 517.285 271.226 516.078 270.431C514.885 269.635 513.961 268.518 513.306 267.081C512.651 265.63 512.324 264.032 512.324 262.287C512.324 260.413 512.677 258.725 513.383 257.223C514.102 255.722 515.116 254.573 516.425 253.777C517.734 252.982 519.261 252.584 521.007 252.584C523.779 252.584 525.961 253.623 527.553 255.703C529.157 257.769 529.959 260.593 529.959 264.174V265.213C529.959 270.668 528.881 274.653 526.725 277.169C524.569 279.672 521.315 280.955 516.964 281.019H516.271V278.016H517.022C519.961 277.965 522.22 277.201 523.798 275.725C525.377 274.236 526.237 271.887 526.378 268.679ZM520.891 268.679C522.085 268.679 523.182 268.313 524.183 267.581C525.197 266.85 525.935 265.945 526.397 264.867V263.442C526.397 261.106 525.89 259.206 524.877 257.743C523.863 256.28 522.579 255.549 521.026 255.549C519.46 255.549 518.202 256.152 517.253 257.358C516.303 258.552 515.828 260.131 515.828 262.094C515.828 264.007 516.284 265.585 517.195 266.83C518.119 268.062 519.351 268.679 520.891 268.679ZM534.56 258.359C534.56 256.678 535.093 255.292 536.158 254.201C537.236 253.11 538.616 252.564 540.298 252.564C542.005 252.564 543.384 253.116 544.437 254.22C545.502 255.311 546.035 256.729 546.035 258.475V259.842C546.035 261.536 545.496 262.922 544.418 264C543.352 265.066 541.992 265.598 540.336 265.598C538.668 265.598 537.288 265.066 536.197 264C535.106 262.922 534.56 261.491 534.56 259.707V258.359ZM537.217 259.842C537.217 260.843 537.5 261.671 538.064 262.325C538.629 262.967 539.386 263.288 540.336 263.288C541.247 263.288 541.979 262.973 542.531 262.345C543.096 261.716 543.378 260.856 543.378 259.765V258.359C543.378 257.358 543.102 256.53 542.55 255.876C541.998 255.221 541.247 254.894 540.298 254.894C539.348 254.894 538.597 255.221 538.045 255.876C537.493 256.53 537.217 257.384 537.217 258.436V259.842ZM548.21 274.127C548.21 272.446 548.743 271.066 549.808 269.988C550.886 268.897 552.266 268.351 553.947 268.351C555.629 268.351 557.009 268.89 558.087 269.968C559.165 271.047 559.704 272.478 559.704 274.262V275.629C559.704 277.31 559.165 278.696 558.087 279.787C557.021 280.865 555.654 281.404 553.986 281.404C552.317 281.404 550.938 280.872 549.847 279.806C548.756 278.728 548.21 277.297 548.21 275.513V274.127ZM550.867 275.629C550.867 276.643 551.149 277.477 551.714 278.131C552.279 278.773 553.036 279.094 553.986 279.094C554.91 279.094 555.648 278.78 556.2 278.151C556.752 277.509 557.028 276.643 557.028 275.552V274.127C557.028 273.113 556.745 272.285 556.181 271.643C555.629 271.002 554.884 270.681 553.947 270.681C553.036 270.681 552.292 271.002 551.714 271.643C551.149 272.272 550.867 273.126 550.867 274.204V275.629ZM541.145 278.882L539.123 277.612L552.812 255.703L554.833 256.973L541.145 278.882Z" fill="#0088F0"/>
<path d="M489.059 307.157C489.059 306.226 489.24 305.388 489.604 304.644C489.973 303.899 490.482 303.325 491.133 302.921C491.789 302.517 492.536 302.314 493.374 302.314C494.669 302.314 495.715 302.763 496.512 303.659C497.314 304.556 497.716 305.748 497.716 307.236V307.351C497.716 308.276 497.537 309.108 497.18 309.847C496.828 310.579 496.321 311.15 495.659 311.561C495.003 311.971 494.247 312.176 493.392 312.176C492.103 312.176 491.057 311.728 490.254 310.831C489.457 309.935 489.059 308.748 489.059 307.271V307.157ZM490.693 307.351C490.693 308.405 490.937 309.252 491.423 309.891C491.915 310.529 492.571 310.849 493.392 310.849C494.218 310.849 494.874 310.526 495.36 309.882C495.847 309.231 496.09 308.323 496.09 307.157C496.09 306.114 495.841 305.271 495.343 304.626C494.851 303.976 494.194 303.65 493.374 303.65C492.571 303.65 491.924 303.97 491.432 304.608C490.939 305.247 490.693 306.161 490.693 307.351ZM507.788 307.351C507.788 308.798 507.457 309.964 506.795 310.849C506.133 311.733 505.236 312.176 504.105 312.176C502.951 312.176 502.043 311.81 501.381 311.077V315.656H499.755V302.49H501.24L501.319 303.545C501.981 302.725 502.901 302.314 504.079 302.314C505.222 302.314 506.124 302.745 506.786 303.606C507.454 304.468 507.788 305.666 507.788 307.201V307.351ZM506.162 307.166C506.162 306.094 505.934 305.247 505.477 304.626C505.02 304.005 504.393 303.694 503.596 303.694C502.611 303.694 501.873 304.131 501.381 305.004V309.548C501.867 310.415 502.611 310.849 503.613 310.849C504.393 310.849 505.011 310.541 505.468 309.926C505.931 309.305 506.162 308.385 506.162 307.166ZM512.068 300.188V302.49H513.844V303.747H512.068V309.645C512.068 310.025 512.147 310.312 512.306 310.506C512.464 310.693 512.733 310.787 513.114 310.787C513.302 310.787 513.56 310.752 513.888 310.682V312C513.46 312.117 513.044 312.176 512.64 312.176C511.913 312.176 511.365 311.956 510.996 311.517C510.627 311.077 510.442 310.453 510.442 309.645V303.747H508.711V302.49H510.442V300.188H512.068ZM517.518 312H515.892V302.49H517.518V312ZM515.76 299.968C515.76 299.704 515.839 299.481 515.997 299.3C516.161 299.118 516.401 299.027 516.718 299.027C517.034 299.027 517.274 299.118 517.438 299.3C517.603 299.481 517.685 299.704 517.685 299.968C517.685 300.231 517.603 300.451 517.438 300.627C517.274 300.803 517.034 300.891 516.718 300.891C516.401 300.891 516.161 300.803 515.997 300.627C515.839 300.451 515.76 300.231 515.76 299.968ZM519.697 307.157C519.697 306.226 519.879 305.388 520.242 304.644C520.611 303.899 521.121 303.325 521.771 302.921C522.428 302.517 523.175 302.314 524.013 302.314C525.308 302.314 526.354 302.763 527.15 303.659C527.953 304.556 528.354 305.748 528.354 307.236V307.351C528.354 308.276 528.176 309.108 527.818 309.847C527.467 310.579 526.96 311.15 526.298 311.561C525.642 311.971 524.886 312.176 524.03 312.176C522.741 312.176 521.695 311.728 520.893 310.831C520.096 309.935 519.697 308.748 519.697 307.271V307.157ZM521.332 307.351C521.332 308.405 521.575 309.252 522.062 309.891C522.554 310.529 523.21 310.849 524.03 310.849C524.856 310.849 525.513 310.526 525.999 309.882C526.485 309.231 526.729 308.323 526.729 307.157C526.729 306.114 526.479 305.271 525.981 304.626C525.489 303.976 524.833 303.65 524.013 303.65C523.21 303.65 522.562 303.97 522.07 304.608C521.578 305.247 521.332 306.161 521.332 307.351ZM531.932 302.49L531.984 303.686C532.711 302.771 533.66 302.314 534.832 302.314C536.842 302.314 537.855 303.448 537.873 305.716V312H536.247V305.707C536.241 305.021 536.083 304.515 535.772 304.187C535.468 303.858 534.99 303.694 534.34 303.694C533.812 303.694 533.35 303.835 532.951 304.116C532.553 304.397 532.242 304.767 532.02 305.224V312H530.394V302.49H531.932ZM553.008 312H544.623V310.831L549.053 305.909C549.709 305.165 550.16 304.562 550.406 304.099C550.658 303.63 550.784 303.146 550.784 302.648C550.784 301.98 550.582 301.433 550.178 301.005C549.773 300.577 549.234 300.363 548.561 300.363C547.752 300.363 547.122 300.595 546.671 301.058C546.226 301.515 546.003 302.153 546.003 302.974H544.377C544.377 301.796 544.755 300.844 545.511 300.117C546.272 299.391 547.289 299.027 548.561 299.027C549.75 299.027 550.69 299.341 551.382 299.968C552.073 300.589 552.419 301.418 552.419 302.455C552.419 303.715 551.616 305.215 550.011 306.955L546.583 310.673H553.008V312Z" fill="#8794BA"/>
<path d="M244.896 81H243.806V73.7754L241.62 74.5781V73.5938L244.726 72.4277H244.896V81ZM253.245 74.6953C253.245 75.1211 253.132 75.5 252.905 75.832C252.683 76.1641 252.38 76.4238 251.997 76.6113C252.442 76.8027 252.794 77.082 253.052 77.4492C253.313 77.8164 253.444 78.2324 253.444 78.6973C253.444 79.4355 253.194 80.0234 252.694 80.4609C252.198 80.8984 251.544 81.1172 250.731 81.1172C249.911 81.1172 249.253 80.8984 248.757 80.4609C248.265 80.0195 248.019 79.4316 248.019 78.6973C248.019 78.2363 248.144 77.8203 248.394 77.4492C248.647 77.0781 248.997 76.7969 249.442 76.6055C249.063 76.418 248.765 76.1582 248.546 75.8262C248.327 75.4941 248.218 75.1172 248.218 74.6953C248.218 73.9766 248.448 73.4062 248.909 72.9844C249.37 72.5625 249.978 72.3516 250.731 72.3516C251.481 72.3516 252.087 72.5625 252.548 72.9844C253.013 73.4062 253.245 73.9766 253.245 74.6953ZM252.36 78.6738C252.36 78.1973 252.208 77.8086 251.903 77.5078C251.603 77.207 251.208 77.0566 250.72 77.0566C250.231 77.0566 249.839 77.2051 249.542 77.502C249.249 77.7988 249.103 78.1895 249.103 78.6738C249.103 79.1582 249.245 79.5391 249.53 79.8164C249.819 80.0938 250.22 80.2324 250.731 80.2324C251.239 80.2324 251.638 80.0938 251.927 79.8164C252.216 79.5352 252.36 79.1543 252.36 78.6738ZM250.731 73.2422C250.306 73.2422 249.96 73.375 249.694 73.6406C249.433 73.9023 249.302 74.2598 249.302 74.7129C249.302 75.1465 249.431 75.498 249.688 75.7676C249.95 76.0332 250.298 76.166 250.731 76.166C251.165 76.166 251.511 76.0332 251.769 75.7676C252.03 75.498 252.161 75.1465 252.161 74.7129C252.161 74.2793 252.026 73.9258 251.757 73.6523C251.487 73.3789 251.146 73.2422 250.731 73.2422ZM257.177 77.8184H254.317V76.9336H257.177V77.8184ZM263.716 81H258.126V80.2207L261.079 76.9395C261.517 76.4434 261.817 76.041 261.981 75.7324C262.149 75.4199 262.233 75.0977 262.233 74.7656C262.233 74.3203 262.099 73.9551 261.829 73.6699C261.56 73.3848 261.2 73.2422 260.751 73.2422C260.212 73.2422 259.792 73.3965 259.491 73.7051C259.194 74.0098 259.046 74.4355 259.046 74.9824H257.962C257.962 74.1973 258.214 73.5625 258.718 73.0781C259.226 72.5938 259.903 72.3516 260.751 72.3516C261.544 72.3516 262.171 72.5605 262.632 72.9785C263.093 73.3926 263.323 73.9453 263.323 74.6367C263.323 75.4766 262.788 76.4766 261.718 77.6367L259.433 80.1152H263.716V81ZM269.44 78.1348H270.624V79.0195H269.44V81H268.351V79.0195H264.466V78.3809L268.286 72.4688H269.44V78.1348ZM265.696 78.1348H268.351V73.9512L268.222 74.1855L265.696 78.1348Z" fill="#8794BA"/>
<path d="M387.923 159H382.333V158.221L385.286 154.939C385.724 154.443 386.024 154.041 386.188 153.732C386.356 153.42 386.44 153.098 386.44 152.766C386.44 152.32 386.306 151.955 386.036 151.67C385.767 151.385 385.407 151.242 384.958 151.242C384.419 151.242 383.999 151.396 383.698 151.705C383.401 152.01 383.253 152.436 383.253 152.982H382.169C382.169 152.197 382.421 151.562 382.925 151.078C383.433 150.594 384.11 150.352 384.958 150.352C385.751 150.352 386.378 150.561 386.839 150.979C387.3 151.393 387.53 151.945 387.53 152.637C387.53 153.477 386.995 154.477 385.925 155.637L383.64 158.115H387.923V159ZM389.569 154.723L390.003 150.469H394.374V151.471H390.923L390.665 153.797C391.083 153.551 391.558 153.428 392.089 153.428C392.866 153.428 393.483 153.686 393.94 154.201C394.397 154.713 394.626 155.406 394.626 156.281C394.626 157.16 394.388 157.854 393.911 158.361C393.438 158.865 392.776 159.117 391.925 159.117C391.171 159.117 390.556 158.908 390.079 158.49C389.603 158.072 389.331 157.494 389.265 156.756H390.29C390.356 157.244 390.53 157.613 390.812 157.863C391.093 158.109 391.464 158.232 391.925 158.232C392.429 158.232 392.823 158.061 393.108 157.717C393.397 157.373 393.542 156.898 393.542 156.293C393.542 155.723 393.386 155.266 393.073 154.922C392.765 154.574 392.353 154.4 391.837 154.4C391.364 154.4 390.993 154.504 390.724 154.711L390.437 154.945L389.569 154.723ZM398.177 155.818H395.317V154.934H398.177V155.818ZM400.702 154.207H401.517C402.028 154.199 402.431 154.064 402.724 153.803C403.017 153.541 403.163 153.188 403.163 152.742C403.163 151.742 402.665 151.242 401.669 151.242C401.2 151.242 400.825 151.377 400.544 151.646C400.267 151.912 400.128 152.266 400.128 152.707H399.044C399.044 152.031 399.29 151.471 399.782 151.025C400.278 150.576 400.907 150.352 401.669 150.352C402.474 150.352 403.104 150.564 403.562 150.99C404.019 151.416 404.247 152.008 404.247 152.766C404.247 153.137 404.126 153.496 403.884 153.844C403.646 154.191 403.319 154.451 402.905 154.623C403.374 154.771 403.735 155.018 403.989 155.361C404.247 155.705 404.376 156.125 404.376 156.621C404.376 157.387 404.126 157.994 403.626 158.443C403.126 158.893 402.476 159.117 401.675 159.117C400.874 159.117 400.222 158.9 399.718 158.467C399.218 158.033 398.968 157.461 398.968 156.75H400.058C400.058 157.199 400.204 157.559 400.497 157.828C400.79 158.098 401.183 158.232 401.675 158.232C402.198 158.232 402.599 158.096 402.876 157.822C403.153 157.549 403.292 157.156 403.292 156.645C403.292 156.148 403.14 155.768 402.835 155.502C402.53 155.236 402.091 155.1 401.517 155.092H400.702V154.207ZM410.44 156.135H411.624V157.02H410.44V159H409.351V157.02H405.466V156.381L409.286 150.469H410.44V156.135ZM406.696 156.135H409.351V151.951L409.222 152.186L406.696 156.135Z" fill="#8794BA"/>
<path d="M383.909 285.207H384.724C385.235 285.199 385.638 285.064 385.931 284.803C386.224 284.541 386.37 284.188 386.37 283.742C386.37 282.742 385.872 282.242 384.876 282.242C384.407 282.242 384.032 282.377 383.751 282.646C383.474 282.912 383.335 283.266 383.335 283.707H382.251C382.251 283.031 382.497 282.471 382.989 282.025C383.485 281.576 384.114 281.352 384.876 281.352C385.681 281.352 386.312 281.564 386.769 281.99C387.226 282.416 387.454 283.008 387.454 283.766C387.454 284.137 387.333 284.496 387.091 284.844C386.853 285.191 386.526 285.451 386.112 285.623C386.581 285.771 386.942 286.018 387.196 286.361C387.454 286.705 387.583 287.125 387.583 287.621C387.583 288.387 387.333 288.994 386.833 289.443C386.333 289.893 385.683 290.117 384.882 290.117C384.081 290.117 383.429 289.9 382.925 289.467C382.425 289.033 382.175 288.461 382.175 287.75H383.265C383.265 288.199 383.411 288.559 383.704 288.828C383.997 289.098 384.39 289.232 384.882 289.232C385.405 289.232 385.806 289.096 386.083 288.822C386.36 288.549 386.499 288.156 386.499 287.645C386.499 287.148 386.347 286.768 386.042 286.502C385.737 286.236 385.298 286.1 384.724 286.092H383.909V285.207ZM389.569 285.723L390.003 281.469H394.374V282.471H390.923L390.665 284.797C391.083 284.551 391.558 284.428 392.089 284.428C392.866 284.428 393.483 284.686 393.94 285.201C394.397 285.713 394.626 286.406 394.626 287.281C394.626 288.16 394.388 288.854 393.911 289.361C393.438 289.865 392.776 290.117 391.925 290.117C391.171 290.117 390.556 289.908 390.079 289.49C389.603 289.072 389.331 288.494 389.265 287.756H390.29C390.356 288.244 390.53 288.613 390.812 288.863C391.093 289.109 391.464 289.232 391.925 289.232C392.429 289.232 392.823 289.061 393.108 288.717C393.397 288.373 393.542 287.898 393.542 287.293C393.542 286.723 393.386 286.266 393.073 285.922C392.765 285.574 392.353 285.4 391.837 285.4C391.364 285.4 390.993 285.504 390.724 285.711L390.437 285.945L389.569 285.723ZM398.177 286.818H395.317V285.934H398.177V286.818ZM403.702 287.135H404.886V288.02H403.702V290H402.612V288.02H398.728V287.381L402.548 281.469H403.702V287.135ZM399.958 287.135H402.612V282.951L402.483 283.186L399.958 287.135ZM410.44 287.135H411.624V288.02H410.44V290H409.351V288.02H405.466V287.381L409.286 281.469H410.44V287.135ZM406.696 287.135H409.351V282.951L409.222 283.186L406.696 287.135Z" fill="#8794BA"/>
<path d="M245.909 372.135H247.093V373.02H245.909V375H244.819V373.02H240.935V372.381L244.755 366.469H245.909V372.135ZM242.165 372.135H244.819V367.951L244.69 368.186L242.165 372.135ZM248.569 370.723L249.003 366.469H253.374V367.471H249.923L249.665 369.797C250.083 369.551 250.558 369.428 251.089 369.428C251.866 369.428 252.483 369.686 252.94 370.201C253.397 370.713 253.626 371.406 253.626 372.281C253.626 373.16 253.388 373.854 252.911 374.361C252.438 374.865 251.776 375.117 250.925 375.117C250.171 375.117 249.556 374.908 249.079 374.49C248.603 374.072 248.331 373.494 248.265 372.756H249.29C249.356 373.244 249.53 373.613 249.812 373.863C250.093 374.109 250.464 374.232 250.925 374.232C251.429 374.232 251.823 374.061 252.108 373.717C252.397 373.373 252.542 372.898 252.542 372.293C252.542 371.723 252.386 371.266 252.073 370.922C251.765 370.574 251.353 370.4 250.837 370.4C250.364 370.4 249.993 370.504 249.724 370.711L249.437 370.945L248.569 370.723ZM257.177 371.818H254.317V370.934H257.177V371.818ZM258.624 370.723L259.058 366.469H263.429V367.471H259.978L259.72 369.797C260.138 369.551 260.612 369.428 261.144 369.428C261.921 369.428 262.538 369.686 262.995 370.201C263.452 370.713 263.681 371.406 263.681 372.281C263.681 373.16 263.442 373.854 262.966 374.361C262.493 374.865 261.831 375.117 260.979 375.117C260.226 375.117 259.61 374.908 259.134 374.49C258.657 374.072 258.386 373.494 258.319 372.756H259.345C259.411 373.244 259.585 373.613 259.866 373.863C260.147 374.109 260.519 374.232 260.979 374.232C261.483 374.232 261.878 374.061 262.163 373.717C262.452 373.373 262.597 372.898 262.597 372.293C262.597 371.723 262.44 371.266 262.128 370.922C261.819 370.574 261.407 370.4 260.892 370.4C260.419 370.4 260.048 370.504 259.778 370.711L259.491 370.945L258.624 370.723ZM269.44 372.135H270.624V373.02H269.44V375H268.351V373.02H264.466V372.381L268.286 366.469H269.44V372.135ZM265.696 372.135H268.351V367.951L268.222 368.186L265.696 372.135Z" fill="#8794BA"/>
<path d="M100.831 285.723L101.265 281.469H105.636V282.471H102.185L101.927 284.797C102.345 284.551 102.819 284.428 103.351 284.428C104.128 284.428 104.745 284.686 105.202 285.201C105.659 285.713 105.888 286.406 105.888 287.281C105.888 288.16 105.649 288.854 105.173 289.361C104.7 289.865 104.038 290.117 103.187 290.117C102.433 290.117 101.817 289.908 101.341 289.49C100.864 289.072 100.593 288.494 100.526 287.756H101.552C101.618 288.244 101.792 288.613 102.073 288.863C102.354 289.109 102.726 289.232 103.187 289.232C103.69 289.232 104.085 289.061 104.37 288.717C104.659 288.373 104.804 287.898 104.804 287.293C104.804 286.723 104.647 286.266 104.335 285.922C104.026 285.574 103.614 285.4 103.099 285.4C102.626 285.4 102.255 285.504 101.985 285.711L101.698 285.945L100.831 285.723ZM107.569 285.723L108.003 281.469H112.374V282.471H108.923L108.665 284.797C109.083 284.551 109.558 284.428 110.089 284.428C110.866 284.428 111.483 284.686 111.94 285.201C112.397 285.713 112.626 286.406 112.626 287.281C112.626 288.16 112.388 288.854 111.911 289.361C111.438 289.865 110.776 290.117 109.925 290.117C109.171 290.117 108.556 289.908 108.079 289.49C107.603 289.072 107.331 288.494 107.265 287.756H108.29C108.356 288.244 108.53 288.613 108.812 288.863C109.093 289.109 109.464 289.232 109.925 289.232C110.429 289.232 110.823 289.061 111.108 288.717C111.397 288.373 111.542 287.898 111.542 287.293C111.542 286.723 111.386 286.266 111.073 285.922C110.765 285.574 110.353 285.4 109.837 285.4C109.364 285.4 108.993 285.504 108.724 285.711L108.437 285.945L107.569 285.723ZM116.177 286.818H113.317V285.934H116.177V286.818ZM121.38 281.463V282.383H121.181C120.337 282.398 119.665 282.648 119.165 283.133C118.665 283.617 118.376 284.299 118.298 285.178C118.747 284.662 119.36 284.404 120.138 284.404C120.88 284.404 121.472 284.666 121.913 285.189C122.358 285.713 122.581 286.389 122.581 287.217C122.581 288.096 122.341 288.799 121.86 289.326C121.384 289.854 120.743 290.117 119.938 290.117C119.122 290.117 118.46 289.805 117.952 289.18C117.444 288.551 117.19 287.742 117.19 286.754V286.338C117.19 284.768 117.524 283.568 118.192 282.74C118.864 281.908 119.862 281.482 121.187 281.463H121.38ZM119.956 285.307C119.585 285.307 119.243 285.418 118.931 285.641C118.618 285.863 118.401 286.143 118.28 286.479V286.877C118.28 287.58 118.438 288.146 118.755 288.576C119.071 289.006 119.466 289.221 119.938 289.221C120.427 289.221 120.81 289.041 121.087 288.682C121.368 288.322 121.509 287.852 121.509 287.27C121.509 286.684 121.366 286.211 121.081 285.852C120.8 285.488 120.425 285.307 119.956 285.307ZM128.44 287.135H129.624V288.02H128.44V290H127.351V288.02H123.466V287.381L127.286 281.469H128.44V287.135ZM124.696 287.135H127.351V282.951L127.222 283.186L124.696 287.135Z" fill="#8794BA"/>
<path d="M109.579 150.463V151.383H109.38C108.536 151.398 107.864 151.648 107.364 152.133C106.864 152.617 106.575 153.299 106.497 154.178C106.946 153.662 107.56 153.404 108.337 153.404C109.079 153.404 109.671 153.666 110.112 154.189C110.558 154.713 110.78 155.389 110.78 156.217C110.78 157.096 110.54 157.799 110.06 158.326C109.583 158.854 108.942 159.117 108.138 159.117C107.321 159.117 106.659 158.805 106.151 158.18C105.644 157.551 105.39 156.742 105.39 155.754V155.338C105.39 153.768 105.724 152.568 106.392 151.74C107.063 150.908 108.062 150.482 109.386 150.463H109.579ZM108.155 154.307C107.784 154.307 107.442 154.418 107.13 154.641C106.817 154.863 106.601 155.143 106.479 155.479V155.877C106.479 156.58 106.638 157.146 106.954 157.576C107.271 158.006 107.665 158.221 108.138 158.221C108.626 158.221 109.009 158.041 109.286 157.682C109.567 157.322 109.708 156.852 109.708 156.27C109.708 155.684 109.565 155.211 109.28 154.852C108.999 154.488 108.624 154.307 108.155 154.307ZM112.562 154.723L112.995 150.469H117.366V151.471H113.915L113.657 153.797C114.075 153.551 114.55 153.428 115.081 153.428C115.858 153.428 116.476 153.686 116.933 154.201C117.39 154.713 117.618 155.406 117.618 156.281C117.618 157.16 117.38 157.854 116.903 158.361C116.431 158.865 115.769 159.117 114.917 159.117C114.163 159.117 113.548 158.908 113.071 158.49C112.595 158.072 112.323 157.494 112.257 156.756H113.282C113.349 157.244 113.522 157.613 113.804 157.863C114.085 158.109 114.456 158.232 114.917 158.232C115.421 158.232 115.815 158.061 116.101 157.717C116.39 157.373 116.534 156.898 116.534 156.293C116.534 155.723 116.378 155.266 116.065 154.922C115.757 154.574 115.345 154.4 114.829 154.4C114.356 154.4 113.985 154.504 113.716 154.711L113.429 154.945L112.562 154.723ZM122.019 154.424H124.397V155.449H122.019V158.145H120.929V155.449H118.55V154.424H120.929V151.934H122.019V154.424Z" fill="#8794BA"/>
<defs>
<filter id="filter0_d" x="0.258789" y="0" width="670" height="480" filterUnits="userSpaceOnUse" color-interpolation-filters="sRGB">
<feFlood flood-opacity="0" result="BackgroundImageFix"/>
<feColorMatrix in="SourceAlpha" type="matrix" values="0 0 0 0 0 0 0 0 0 0 0 0 0 0 0 0 0 0 127 0"/>
<feMorphology radius="15" operator="erode" in="SourceAlpha" result="effect1_dropShadow"/>
<feOffset dy="18"/>
<feGaussianBlur stdDeviation="25"/>
<feColorMatrix type="matrix" values="0 0 0 0 0.0996452 0 0 0 0 0.164326 0 0 0 0 0.350284 0 0 0 0.2 0"/>
<feBlend mode="normal" in2="BackgroundImageFix" result="effect1_dropShadow"/>
<feBlend mode="normal" in="SourceGraphic" in2="effect1_dropShadow" result="shape"/>
</filter>
</defs>
</svg>
