<svg width="671" height="480" viewBox="0 0 671 480" fill="none" xmlns="http://www.w3.org/2000/svg">
<g filter="url(#filter0_d)">
<rect x="35.5972" y="17" width="600" height="410" rx="30" fill="white"/>
</g>
<rect x="105.597" y="119" width="66" height="52" fill="white"/>
<rect x="171.597" y="119" width="66" height="52" fill="white"/>
<path d="M204.714 149H203.624V141.775L201.438 142.578V141.594L204.544 140.428H204.714V149Z" fill="#172755"/>
<rect x="237.597" y="119" width="66" height="52" fill="white"/>
<path d="M272.741 149H267.151V148.221L270.104 144.939C270.542 144.443 270.843 144.041 271.007 143.732C271.175 143.42 271.259 143.098 271.259 142.766C271.259 142.32 271.124 141.955 270.854 141.67C270.585 141.385 270.226 141.242 269.776 141.242C269.237 141.242 268.817 141.396 268.517 141.705C268.22 142.01 268.071 142.436 268.071 142.982H266.987C266.987 142.197 267.239 141.562 267.743 141.078C268.251 140.594 268.929 140.352 269.776 140.352C270.569 140.352 271.196 140.561 271.657 140.979C272.118 141.393 272.349 141.945 272.349 142.637C272.349 143.477 271.813 144.477 270.743 145.637L268.458 148.115H272.741V149Z" fill="#172755"/>
<rect x="303.597" y="119" width="66" height="52" fill="white"/>
<path d="M334.728 144.207H335.542C336.054 144.199 336.456 144.064 336.749 143.803C337.042 143.541 337.188 143.188 337.188 142.742C337.188 141.742 336.69 141.242 335.694 141.242C335.226 141.242 334.851 141.377 334.569 141.646C334.292 141.912 334.153 142.266 334.153 142.707H333.069C333.069 142.031 333.315 141.471 333.808 141.025C334.304 140.576 334.933 140.352 335.694 140.352C336.499 140.352 337.13 140.564 337.587 140.99C338.044 141.416 338.272 142.008 338.272 142.766C338.272 143.137 338.151 143.496 337.909 143.844C337.671 144.191 337.345 144.451 336.931 144.623C337.399 144.771 337.761 145.018 338.015 145.361C338.272 145.705 338.401 146.125 338.401 146.621C338.401 147.387 338.151 147.994 337.651 148.443C337.151 148.893 336.501 149.117 335.7 149.117C334.899 149.117 334.247 148.9 333.743 148.467C333.243 148.033 332.993 147.461 332.993 146.75H334.083C334.083 147.199 334.229 147.559 334.522 147.828C334.815 148.098 335.208 148.232 335.7 148.232C336.224 148.232 336.624 148.096 336.901 147.822C337.179 147.549 337.317 147.156 337.317 146.645C337.317 146.148 337.165 145.768 336.86 145.502C336.556 145.236 336.116 145.1 335.542 145.092H334.728V144.207Z" fill="#172755"/>
<rect x="369.597" y="119" width="66" height="52" fill="white"/>
<path d="M403.728 146.135H404.911V147.02H403.728V149H402.638V147.02H398.753V146.381L402.573 140.469H403.728V146.135ZM399.983 146.135H402.638V141.951L402.509 142.186L399.983 146.135Z" fill="#172755"/>
<rect x="435.597" y="119" width="66" height="52" fill="white"/>
<path d="M465.649 144.723L466.083 140.469H470.454V141.471H467.003L466.745 143.797C467.163 143.551 467.638 143.428 468.169 143.428C468.946 143.428 469.563 143.686 470.021 144.201C470.478 144.713 470.706 145.406 470.706 146.281C470.706 147.16 470.468 147.854 469.991 148.361C469.519 148.865 468.856 149.117 468.005 149.117C467.251 149.117 466.636 148.908 466.159 148.49C465.683 148.072 465.411 147.494 465.345 146.756H466.37C466.437 147.244 466.61 147.613 466.892 147.863C467.173 148.109 467.544 148.232 468.005 148.232C468.509 148.232 468.903 148.061 469.188 147.717C469.478 147.373 469.622 146.898 469.622 146.293C469.622 145.723 469.466 145.266 469.153 144.922C468.845 144.574 468.433 144.4 467.917 144.4C467.444 144.4 467.073 144.504 466.804 144.711L466.517 144.945L465.649 144.723Z" fill="#172755"/>
<rect x="501.597" y="119" width="66" height="52" fill="white"/>
<path d="M535.405 140.463V141.383H535.206C534.362 141.398 533.69 141.648 533.19 142.133C532.69 142.617 532.401 143.299 532.323 144.178C532.772 143.662 533.386 143.404 534.163 143.404C534.905 143.404 535.497 143.666 535.938 144.189C536.384 144.713 536.606 145.389 536.606 146.217C536.606 147.096 536.366 147.799 535.886 148.326C535.409 148.854 534.769 149.117 533.964 149.117C533.147 149.117 532.485 148.805 531.978 148.18C531.47 147.551 531.216 146.742 531.216 145.754V145.338C531.216 143.768 531.55 142.568 532.218 141.74C532.89 140.908 533.888 140.482 535.212 140.463H535.405ZM533.981 144.307C533.61 144.307 533.269 144.418 532.956 144.641C532.644 144.863 532.427 145.143 532.306 145.479V145.877C532.306 146.58 532.464 147.146 532.78 147.576C533.097 148.006 533.491 148.221 533.964 148.221C534.452 148.221 534.835 148.041 535.112 147.682C535.394 147.322 535.534 146.852 535.534 146.27C535.534 145.684 535.392 145.211 535.106 144.852C534.825 144.488 534.45 144.307 533.981 144.307Z" fill="#172755"/>
<rect x="105.597" y="171" width="66" height="52" fill="white"/>
<path d="M140.659 193.078L137.126 201H135.989L139.511 193.359H134.894V192.469H140.659V193.078Z" fill="#172755"/>
<rect x="171.597" y="171" width="66" height="52" fill="white"/>
<circle cx="204.097" cy="196.5" r="19.5" fill="#0088F0"/>
<path d="M206.325 194.695C206.325 195.121 206.212 195.5 205.985 195.832C205.763 196.164 205.46 196.424 205.077 196.611C205.522 196.803 205.874 197.082 206.132 197.449C206.394 197.816 206.524 198.232 206.524 198.697C206.524 199.436 206.274 200.023 205.774 200.461C205.278 200.898 204.624 201.117 203.812 201.117C202.991 201.117 202.333 200.898 201.837 200.461C201.345 200.02 201.099 199.432 201.099 198.697C201.099 198.236 201.224 197.82 201.474 197.449C201.728 197.078 202.077 196.797 202.522 196.605C202.144 196.418 201.845 196.158 201.626 195.826C201.407 195.494 201.298 195.117 201.298 194.695C201.298 193.977 201.528 193.406 201.989 192.984C202.45 192.562 203.058 192.352 203.812 192.352C204.562 192.352 205.167 192.562 205.628 192.984C206.093 193.406 206.325 193.977 206.325 194.695ZM205.44 198.674C205.44 198.197 205.288 197.809 204.983 197.508C204.683 197.207 204.288 197.057 203.8 197.057C203.312 197.057 202.919 197.205 202.622 197.502C202.329 197.799 202.183 198.189 202.183 198.674C202.183 199.158 202.325 199.539 202.61 199.816C202.899 200.094 203.3 200.232 203.812 200.232C204.319 200.232 204.718 200.094 205.007 199.816C205.296 199.535 205.44 199.154 205.44 198.674ZM203.812 193.242C203.386 193.242 203.04 193.375 202.774 193.641C202.513 193.902 202.382 194.26 202.382 194.713C202.382 195.146 202.511 195.498 202.769 195.768C203.03 196.033 203.378 196.166 203.812 196.166C204.245 196.166 204.591 196.033 204.849 195.768C205.11 195.498 205.241 195.146 205.241 194.713C205.241 194.279 205.106 193.926 204.837 193.652C204.567 193.379 204.226 193.242 203.812 193.242Z" fill="#EEEEF7"/>
<rect x="237.597" y="171" width="66" height="52" fill="white"/>
<circle cx="270.097" cy="196.5" r="19.5" fill="#0088F0"/>
<path d="M271.306 197.25C271.079 197.52 270.808 197.736 270.491 197.9C270.179 198.064 269.835 198.146 269.46 198.146C268.968 198.146 268.538 198.025 268.171 197.783C267.808 197.541 267.526 197.201 267.327 196.764C267.128 196.322 267.028 195.836 267.028 195.305C267.028 194.734 267.136 194.221 267.351 193.764C267.569 193.307 267.878 192.957 268.276 192.715C268.675 192.473 269.14 192.352 269.671 192.352C270.515 192.352 271.179 192.668 271.663 193.301C272.151 193.93 272.396 194.789 272.396 195.879V196.195C272.396 197.855 272.067 199.068 271.411 199.834C270.755 200.596 269.765 200.986 268.44 201.006H268.229V200.092H268.458C269.353 200.076 270.04 199.844 270.521 199.395C271.001 198.941 271.263 198.227 271.306 197.25ZM269.636 197.25C269.999 197.25 270.333 197.139 270.638 196.916C270.946 196.693 271.171 196.418 271.312 196.09V195.656C271.312 194.945 271.157 194.367 270.849 193.922C270.54 193.477 270.149 193.254 269.677 193.254C269.2 193.254 268.817 193.438 268.528 193.805C268.239 194.168 268.095 194.648 268.095 195.246C268.095 195.828 268.233 196.309 268.511 196.688C268.792 197.062 269.167 197.25 269.636 197.25Z" fill="#EEEEF7"/>
<rect x="303.597" y="171" width="66" height="52" fill="white"/>
<circle cx="336.097" cy="196.5" r="19.5" fill="#0088F0"/>
<path d="M332.845 201H331.755V193.775L329.569 194.578V193.594L332.675 192.428H332.845V201ZM341.37 197.361C341.37 198.631 341.153 199.574 340.72 200.191C340.286 200.809 339.608 201.117 338.687 201.117C337.776 201.117 337.103 200.816 336.665 200.215C336.228 199.609 336.001 198.707 335.985 197.508V196.061C335.985 194.807 336.202 193.875 336.636 193.266C337.069 192.656 337.749 192.352 338.675 192.352C339.593 192.352 340.269 192.646 340.702 193.236C341.136 193.822 341.358 194.729 341.37 195.955V197.361ZM340.286 195.879C340.286 194.961 340.157 194.293 339.899 193.875C339.642 193.453 339.233 193.242 338.675 193.242C338.12 193.242 337.716 193.451 337.462 193.869C337.208 194.287 337.077 194.93 337.069 195.797V197.531C337.069 198.453 337.202 199.135 337.468 199.576C337.737 200.014 338.144 200.232 338.687 200.232C339.222 200.232 339.618 200.025 339.876 199.611C340.138 199.197 340.274 198.545 340.286 197.654V195.879Z" fill="#EEEEF7"/>
<rect x="369.597" y="171" width="66" height="52" fill="white"/>
<path d="M398.845 201H397.755V193.775L395.569 194.578V193.594L398.675 192.428H398.845V201ZM405.583 201H404.493V193.775L402.308 194.578V193.594L405.413 192.428H405.583V201Z" fill="#172755"/>
<rect x="435.597" y="171" width="66" height="52" fill="white"/>
<path d="M464.845 201H463.755V193.775L461.569 194.578V193.594L464.675 192.428H464.845V201ZM473.61 201H468.021V200.221L470.974 196.939C471.411 196.443 471.712 196.041 471.876 195.732C472.044 195.42 472.128 195.098 472.128 194.766C472.128 194.32 471.993 193.955 471.724 193.67C471.454 193.385 471.095 193.242 470.646 193.242C470.106 193.242 469.687 193.396 469.386 193.705C469.089 194.01 468.94 194.436 468.94 194.982H467.856C467.856 194.197 468.108 193.562 468.612 193.078C469.12 192.594 469.798 192.352 470.646 192.352C471.438 192.352 472.065 192.561 472.526 192.979C472.987 193.393 473.218 193.945 473.218 194.637C473.218 195.477 472.683 196.477 471.612 197.637L469.327 200.115H473.61V201Z" fill="#172755"/>
<rect x="501.597" y="171" width="66" height="52" fill="white"/>
<path d="M530.845 201H529.755V193.775L527.569 194.578V193.594L530.675 192.428H530.845V201ZM535.597 196.207H536.411C536.923 196.199 537.325 196.064 537.618 195.803C537.911 195.541 538.058 195.188 538.058 194.742C538.058 193.742 537.56 193.242 536.563 193.242C536.095 193.242 535.72 193.377 535.438 193.646C535.161 193.912 535.022 194.266 535.022 194.707H533.938C533.938 194.031 534.185 193.471 534.677 193.025C535.173 192.576 535.802 192.352 536.563 192.352C537.368 192.352 537.999 192.564 538.456 192.99C538.913 193.416 539.142 194.008 539.142 194.766C539.142 195.137 539.021 195.496 538.778 195.844C538.54 196.191 538.214 196.451 537.8 196.623C538.269 196.771 538.63 197.018 538.884 197.361C539.142 197.705 539.271 198.125 539.271 198.621C539.271 199.387 539.021 199.994 538.521 200.443C538.021 200.893 537.37 201.117 536.569 201.117C535.769 201.117 535.116 200.9 534.612 200.467C534.112 200.033 533.862 199.461 533.862 198.75H534.952C534.952 199.199 535.099 199.559 535.392 199.828C535.685 200.098 536.077 200.232 536.569 200.232C537.093 200.232 537.493 200.096 537.771 199.822C538.048 199.549 538.187 199.156 538.187 198.645C538.187 198.148 538.034 197.768 537.729 197.502C537.425 197.236 536.985 197.1 536.411 197.092H535.597V196.207Z" fill="#172755"/>
<rect x="105.597" y="223" width="66" height="52" fill="white"/>
<path d="M134.845 253H133.755V245.775L131.569 246.578V245.594L134.675 244.428H134.845V253ZM142.597 250.135H143.78V251.02H142.597V253H141.507V251.02H137.622V250.381L141.442 244.469H142.597V250.135ZM138.853 250.135H141.507V245.951L141.378 246.186L138.853 250.135Z" fill="#172755"/>
<rect x="171.597" y="223" width="66" height="52" fill="white"/>
<path d="M200.845 253H199.755V245.775L197.569 246.578V245.594L200.675 244.428H200.845V253ZM204.519 248.723L204.952 244.469H209.323V245.471H205.872L205.614 247.797C206.032 247.551 206.507 247.428 207.038 247.428C207.815 247.428 208.433 247.686 208.89 248.201C209.347 248.713 209.575 249.406 209.575 250.281C209.575 251.16 209.337 251.854 208.86 252.361C208.388 252.865 207.726 253.117 206.874 253.117C206.12 253.117 205.505 252.908 205.028 252.49C204.552 252.072 204.28 251.494 204.214 250.756H205.239C205.306 251.244 205.479 251.613 205.761 251.863C206.042 252.109 206.413 252.232 206.874 252.232C207.378 252.232 207.772 252.061 208.058 251.717C208.347 251.373 208.491 250.898 208.491 250.293C208.491 249.723 208.335 249.266 208.022 248.922C207.714 248.574 207.302 248.4 206.786 248.4C206.313 248.4 205.942 248.504 205.673 248.711L205.386 248.945L204.519 248.723Z" fill="#172755"/>
<rect x="237.597" y="223" width="66" height="52" fill="white"/>
<path d="M266.845 253H265.755V245.775L263.569 246.578V245.594L266.675 244.428H266.845V253ZM274.274 244.463V245.383H274.075C273.231 245.398 272.56 245.648 272.06 246.133C271.56 246.617 271.271 247.299 271.192 248.178C271.642 247.662 272.255 247.404 273.032 247.404C273.774 247.404 274.366 247.666 274.808 248.189C275.253 248.713 275.476 249.389 275.476 250.217C275.476 251.096 275.235 251.799 274.755 252.326C274.278 252.854 273.638 253.117 272.833 253.117C272.017 253.117 271.354 252.805 270.847 252.18C270.339 251.551 270.085 250.742 270.085 249.754V249.338C270.085 247.768 270.419 246.568 271.087 245.74C271.759 244.908 272.757 244.482 274.081 244.463H274.274ZM272.851 248.307C272.479 248.307 272.138 248.418 271.825 248.641C271.513 248.863 271.296 249.143 271.175 249.479V249.877C271.175 250.58 271.333 251.146 271.649 251.576C271.966 252.006 272.36 252.221 272.833 252.221C273.321 252.221 273.704 252.041 273.981 251.682C274.263 251.322 274.403 250.852 274.403 250.27C274.403 249.684 274.261 249.211 273.976 248.852C273.694 248.488 273.319 248.307 272.851 248.307Z" fill="#172755"/>
<rect x="303.597" y="223" width="66" height="52" fill="white"/>
<path d="M332.845 253H331.755V245.775L329.569 246.578V245.594L332.675 244.428H332.845V253ZM341.528 245.078L337.995 253H336.858L340.38 245.359H335.763V244.469H341.528V245.078Z" fill="#172755"/>
<rect x="369.597" y="223" width="66" height="52" fill="white"/>
<circle cx="402.097" cy="248.5" r="19.5" fill="#EF2A82"/>
<path d="M398.845 253H397.755V245.775L395.569 246.578V245.594L398.675 244.428H398.845V253ZM407.194 246.695C407.194 247.121 407.081 247.5 406.854 247.832C406.632 248.164 406.329 248.424 405.946 248.611C406.392 248.803 406.743 249.082 407.001 249.449C407.263 249.816 407.394 250.232 407.394 250.697C407.394 251.436 407.144 252.023 406.644 252.461C406.147 252.898 405.493 253.117 404.681 253.117C403.86 253.117 403.202 252.898 402.706 252.461C402.214 252.02 401.968 251.432 401.968 250.697C401.968 250.236 402.093 249.82 402.343 249.449C402.597 249.078 402.946 248.797 403.392 248.605C403.013 248.418 402.714 248.158 402.495 247.826C402.276 247.494 402.167 247.117 402.167 246.695C402.167 245.977 402.397 245.406 402.858 244.984C403.319 244.562 403.927 244.352 404.681 244.352C405.431 244.352 406.036 244.562 406.497 244.984C406.962 245.406 407.194 245.977 407.194 246.695ZM406.31 250.674C406.31 250.197 406.157 249.809 405.853 249.508C405.552 249.207 405.157 249.057 404.669 249.057C404.181 249.057 403.788 249.205 403.491 249.502C403.198 249.799 403.052 250.189 403.052 250.674C403.052 251.158 403.194 251.539 403.479 251.816C403.769 252.094 404.169 252.232 404.681 252.232C405.188 252.232 405.587 252.094 405.876 251.816C406.165 251.535 406.31 251.154 406.31 250.674ZM404.681 245.242C404.255 245.242 403.909 245.375 403.644 245.641C403.382 245.902 403.251 246.26 403.251 246.713C403.251 247.146 403.38 247.498 403.638 247.768C403.899 248.033 404.247 248.166 404.681 248.166C405.114 248.166 405.46 248.033 405.718 247.768C405.979 247.498 406.11 247.146 406.11 246.713C406.11 246.279 405.976 245.926 405.706 245.652C405.437 245.379 405.095 245.242 404.681 245.242Z" fill="#EEEEF7"/>
<rect x="435.597" y="223" width="66" height="52" fill="white"/>
<path d="M464.845 253H463.755V245.775L461.569 246.578V245.594L464.675 244.428H464.845V253ZM472.175 249.25C471.948 249.52 471.677 249.736 471.36 249.9C471.048 250.064 470.704 250.146 470.329 250.146C469.837 250.146 469.407 250.025 469.04 249.783C468.677 249.541 468.396 249.201 468.196 248.764C467.997 248.322 467.897 247.836 467.897 247.305C467.897 246.734 468.005 246.221 468.22 245.764C468.438 245.307 468.747 244.957 469.146 244.715C469.544 244.473 470.009 244.352 470.54 244.352C471.384 244.352 472.048 244.668 472.532 245.301C473.021 245.93 473.265 246.789 473.265 247.879V248.195C473.265 249.855 472.937 251.068 472.28 251.834C471.624 252.596 470.634 252.986 469.31 253.006H469.099V252.092H469.327C470.222 252.076 470.909 251.844 471.39 251.395C471.87 250.941 472.132 250.227 472.175 249.25ZM470.505 249.25C470.868 249.25 471.202 249.139 471.507 248.916C471.815 248.693 472.04 248.418 472.181 248.09V247.656C472.181 246.945 472.026 246.367 471.718 245.922C471.409 245.477 471.019 245.254 470.546 245.254C470.069 245.254 469.687 245.438 469.397 245.805C469.108 246.168 468.964 246.648 468.964 247.246C468.964 247.828 469.103 248.309 469.38 248.688C469.661 249.062 470.036 249.25 470.505 249.25Z" fill="#172755"/>
<rect x="501.597" y="223" width="66" height="52" fill="white"/>
<path d="M532.872 253H527.282V252.221L530.235 248.939C530.673 248.443 530.974 248.041 531.138 247.732C531.306 247.42 531.39 247.098 531.39 246.766C531.39 246.32 531.255 245.955 530.985 245.67C530.716 245.385 530.356 245.242 529.907 245.242C529.368 245.242 528.948 245.396 528.647 245.705C528.351 246.01 528.202 246.436 528.202 246.982H527.118C527.118 246.197 527.37 245.562 527.874 245.078C528.382 244.594 529.06 244.352 529.907 244.352C530.7 244.352 531.327 244.561 531.788 244.979C532.249 245.393 532.479 245.945 532.479 246.637C532.479 247.477 531.944 248.477 530.874 249.637L528.589 252.115H532.872V253ZM539.37 249.361C539.37 250.631 539.153 251.574 538.72 252.191C538.286 252.809 537.608 253.117 536.687 253.117C535.776 253.117 535.103 252.816 534.665 252.215C534.228 251.609 534.001 250.707 533.985 249.508V248.061C533.985 246.807 534.202 245.875 534.636 245.266C535.069 244.656 535.749 244.352 536.675 244.352C537.593 244.352 538.269 244.646 538.702 245.236C539.136 245.822 539.358 246.729 539.37 247.955V249.361ZM538.286 247.879C538.286 246.961 538.157 246.293 537.899 245.875C537.642 245.453 537.233 245.242 536.675 245.242C536.12 245.242 535.716 245.451 535.462 245.869C535.208 246.287 535.077 246.93 535.069 247.797V249.531C535.069 250.453 535.202 251.135 535.468 251.576C535.737 252.014 536.144 252.232 536.687 252.232C537.222 252.232 537.618 252.025 537.876 251.611C538.138 251.197 538.274 250.545 538.286 249.654V247.879Z" fill="#172755"/>
<rect x="105.597" y="275" width="66" height="52" fill="white"/>
<path d="M136.872 305H131.282V304.221L134.235 300.939C134.673 300.443 134.974 300.041 135.138 299.732C135.306 299.42 135.39 299.098 135.39 298.766C135.39 298.32 135.255 297.955 134.985 297.67C134.716 297.385 134.356 297.242 133.907 297.242C133.368 297.242 132.948 297.396 132.647 297.705C132.351 298.01 132.202 298.436 132.202 298.982H131.118C131.118 298.197 131.37 297.562 131.874 297.078C132.382 296.594 133.06 296.352 133.907 296.352C134.7 296.352 135.327 296.561 135.788 296.979C136.249 297.393 136.479 297.945 136.479 298.637C136.479 299.477 135.944 300.477 134.874 301.637L132.589 304.115H136.872V305ZM141.583 305H140.493V297.775L138.308 298.578V297.594L141.413 296.428H141.583V305Z" fill="#172755"/>
<rect x="171.597" y="275" width="66" height="52" fill="white"/>
<path d="M202.872 305H197.282V304.221L200.235 300.939C200.673 300.443 200.974 300.041 201.138 299.732C201.306 299.42 201.39 299.098 201.39 298.766C201.39 298.32 201.255 297.955 200.985 297.67C200.716 297.385 200.356 297.242 199.907 297.242C199.368 297.242 198.948 297.396 198.647 297.705C198.351 298.01 198.202 298.436 198.202 298.982H197.118C197.118 298.197 197.37 297.562 197.874 297.078C198.382 296.594 199.06 296.352 199.907 296.352C200.7 296.352 201.327 296.561 201.788 296.979C202.249 297.393 202.479 297.945 202.479 298.637C202.479 299.477 201.944 300.477 200.874 301.637L198.589 304.115H202.872V305ZM209.61 305H204.021V304.221L206.974 300.939C207.411 300.443 207.712 300.041 207.876 299.732C208.044 299.42 208.128 299.098 208.128 298.766C208.128 298.32 207.993 297.955 207.724 297.67C207.454 297.385 207.095 297.242 206.646 297.242C206.106 297.242 205.687 297.396 205.386 297.705C205.089 298.01 204.94 298.436 204.94 298.982H203.856C203.856 298.197 204.108 297.562 204.612 297.078C205.12 296.594 205.798 296.352 206.646 296.352C207.438 296.352 208.065 296.561 208.526 296.979C208.987 297.393 209.218 297.945 209.218 298.637C209.218 299.477 208.683 300.477 207.612 301.637L205.327 304.115H209.61V305Z" fill="#172755"/>
<rect x="237.597" y="275" width="66" height="52" fill="white"/>
<path d="M268.872 305H263.282V304.221L266.235 300.939C266.673 300.443 266.974 300.041 267.138 299.732C267.306 299.42 267.39 299.098 267.39 298.766C267.39 298.32 267.255 297.955 266.985 297.67C266.716 297.385 266.356 297.242 265.907 297.242C265.368 297.242 264.948 297.396 264.647 297.705C264.351 298.01 264.202 298.436 264.202 298.982H263.118C263.118 298.197 263.37 297.562 263.874 297.078C264.382 296.594 265.06 296.352 265.907 296.352C266.7 296.352 267.327 296.561 267.788 296.979C268.249 297.393 268.479 297.945 268.479 298.637C268.479 299.477 267.944 300.477 266.874 301.637L264.589 304.115H268.872V305ZM271.597 300.207H272.411C272.923 300.199 273.325 300.064 273.618 299.803C273.911 299.541 274.058 299.188 274.058 298.742C274.058 297.742 273.56 297.242 272.563 297.242C272.095 297.242 271.72 297.377 271.438 297.646C271.161 297.912 271.022 298.266 271.022 298.707H269.938C269.938 298.031 270.185 297.471 270.677 297.025C271.173 296.576 271.802 296.352 272.563 296.352C273.368 296.352 273.999 296.564 274.456 296.99C274.913 297.416 275.142 298.008 275.142 298.766C275.142 299.137 275.021 299.496 274.778 299.844C274.54 300.191 274.214 300.451 273.8 300.623C274.269 300.771 274.63 301.018 274.884 301.361C275.142 301.705 275.271 302.125 275.271 302.621C275.271 303.387 275.021 303.994 274.521 304.443C274.021 304.893 273.37 305.117 272.569 305.117C271.769 305.117 271.116 304.9 270.612 304.467C270.112 304.033 269.862 303.461 269.862 302.75H270.952C270.952 303.199 271.099 303.559 271.392 303.828C271.685 304.098 272.077 304.232 272.569 304.232C273.093 304.232 273.493 304.096 273.771 303.822C274.048 303.549 274.187 303.156 274.187 302.645C274.187 302.148 274.034 301.768 273.729 301.502C273.425 301.236 272.985 301.1 272.411 301.092H271.597V300.207Z" fill="#172755"/>
<rect x="303.597" y="275" width="66" height="52" fill="white"/>
<path d="M334.872 305H329.282V304.221L332.235 300.939C332.673 300.443 332.974 300.041 333.138 299.732C333.306 299.42 333.39 299.098 333.39 298.766C333.39 298.32 333.255 297.955 332.985 297.67C332.716 297.385 332.356 297.242 331.907 297.242C331.368 297.242 330.948 297.396 330.647 297.705C330.351 298.01 330.202 298.436 330.202 298.982H329.118C329.118 298.197 329.37 297.562 329.874 297.078C330.382 296.594 331.06 296.352 331.907 296.352C332.7 296.352 333.327 296.561 333.788 296.979C334.249 297.393 334.479 297.945 334.479 298.637C334.479 299.477 333.944 300.477 332.874 301.637L330.589 304.115H334.872V305ZM340.597 302.135H341.78V303.02H340.597V305H339.507V303.02H335.622V302.381L339.442 296.469H340.597V302.135ZM336.853 302.135H339.507V297.951L339.378 298.186L336.853 302.135Z" fill="#172755"/>
<rect x="369.597" y="275" width="66" height="52" fill="white"/>
<path d="M400.872 305H395.282V304.221L398.235 300.939C398.673 300.443 398.974 300.041 399.138 299.732C399.306 299.42 399.39 299.098 399.39 298.766C399.39 298.32 399.255 297.955 398.985 297.67C398.716 297.385 398.356 297.242 397.907 297.242C397.368 297.242 396.948 297.396 396.647 297.705C396.351 298.01 396.202 298.436 396.202 298.982H395.118C395.118 298.197 395.37 297.562 395.874 297.078C396.382 296.594 397.06 296.352 397.907 296.352C398.7 296.352 399.327 296.561 399.788 296.979C400.249 297.393 400.479 297.945 400.479 298.637C400.479 299.477 399.944 300.477 398.874 301.637L396.589 304.115H400.872V305ZM402.519 300.723L402.952 296.469H407.323V297.471H403.872L403.614 299.797C404.032 299.551 404.507 299.428 405.038 299.428C405.815 299.428 406.433 299.686 406.89 300.201C407.347 300.713 407.575 301.406 407.575 302.281C407.575 303.16 407.337 303.854 406.86 304.361C406.388 304.865 405.726 305.117 404.874 305.117C404.12 305.117 403.505 304.908 403.028 304.49C402.552 304.072 402.28 303.494 402.214 302.756H403.239C403.306 303.244 403.479 303.613 403.761 303.863C404.042 304.109 404.413 304.232 404.874 304.232C405.378 304.232 405.772 304.061 406.058 303.717C406.347 303.373 406.491 302.898 406.491 302.293C406.491 301.723 406.335 301.266 406.022 300.922C405.714 300.574 405.302 300.4 404.786 300.4C404.313 300.4 403.942 300.504 403.673 300.711L403.386 300.945L402.519 300.723Z" fill="#172755"/>
<rect x="435.597" y="275" width="66" height="52" fill="white"/>
<path d="M466.872 305H461.282V304.221L464.235 300.939C464.673 300.443 464.974 300.041 465.138 299.732C465.306 299.42 465.39 299.098 465.39 298.766C465.39 298.32 465.255 297.955 464.985 297.67C464.716 297.385 464.356 297.242 463.907 297.242C463.368 297.242 462.948 297.396 462.647 297.705C462.351 298.01 462.202 298.436 462.202 298.982H461.118C461.118 298.197 461.37 297.562 461.874 297.078C462.382 296.594 463.06 296.352 463.907 296.352C464.7 296.352 465.327 296.561 465.788 296.979C466.249 297.393 466.479 297.945 466.479 298.637C466.479 299.477 465.944 300.477 464.874 301.637L462.589 304.115H466.872V305ZM472.274 296.463V297.383H472.075C471.231 297.398 470.56 297.648 470.06 298.133C469.56 298.617 469.271 299.299 469.192 300.178C469.642 299.662 470.255 299.404 471.032 299.404C471.774 299.404 472.366 299.666 472.808 300.189C473.253 300.713 473.476 301.389 473.476 302.217C473.476 303.096 473.235 303.799 472.755 304.326C472.278 304.854 471.638 305.117 470.833 305.117C470.017 305.117 469.354 304.805 468.847 304.18C468.339 303.551 468.085 302.742 468.085 301.754V301.338C468.085 299.768 468.419 298.568 469.087 297.74C469.759 296.908 470.757 296.482 472.081 296.463H472.274ZM470.851 300.307C470.479 300.307 470.138 300.418 469.825 300.641C469.513 300.863 469.296 301.143 469.175 301.479V301.877C469.175 302.58 469.333 303.146 469.649 303.576C469.966 304.006 470.36 304.221 470.833 304.221C471.321 304.221 471.704 304.041 471.981 303.682C472.263 303.322 472.403 302.852 472.403 302.27C472.403 301.684 472.261 301.211 471.976 300.852C471.694 300.488 471.319 300.307 470.851 300.307Z" fill="#172755"/>
<rect x="501.597" y="275" width="66" height="52" fill="white"/>
<path d="M532.872 305H527.282V304.221L530.235 300.939C530.673 300.443 530.974 300.041 531.138 299.732C531.306 299.42 531.39 299.098 531.39 298.766C531.39 298.32 531.255 297.955 530.985 297.67C530.716 297.385 530.356 297.242 529.907 297.242C529.368 297.242 528.948 297.396 528.647 297.705C528.351 298.01 528.202 298.436 528.202 298.982H527.118C527.118 298.197 527.37 297.562 527.874 297.078C528.382 296.594 529.06 296.352 529.907 296.352C530.7 296.352 531.327 296.561 531.788 296.979C532.249 297.393 532.479 297.945 532.479 298.637C532.479 299.477 531.944 300.477 530.874 301.637L528.589 304.115H532.872V305ZM539.528 297.078L535.995 305H534.858L538.38 297.359H533.763V296.469H539.528V297.078Z" fill="#172755"/>
<rect x="105.597" y="327" width="66" height="52" fill="white"/>
<path d="M136.872 357H131.282V356.221L134.235 352.939C134.673 352.443 134.974 352.041 135.138 351.732C135.306 351.42 135.39 351.098 135.39 350.766C135.39 350.32 135.255 349.955 134.985 349.67C134.716 349.385 134.356 349.242 133.907 349.242C133.368 349.242 132.948 349.396 132.647 349.705C132.351 350.01 132.202 350.436 132.202 350.982H131.118C131.118 350.197 131.37 349.562 131.874 349.078C132.382 348.594 133.06 348.352 133.907 348.352C134.7 348.352 135.327 348.561 135.788 348.979C136.249 349.393 136.479 349.945 136.479 350.637C136.479 351.477 135.944 352.477 134.874 353.637L132.589 356.115H136.872V357ZM143.194 350.695C143.194 351.121 143.081 351.5 142.854 351.832C142.632 352.164 142.329 352.424 141.946 352.611C142.392 352.803 142.743 353.082 143.001 353.449C143.263 353.816 143.394 354.232 143.394 354.697C143.394 355.436 143.144 356.023 142.644 356.461C142.147 356.898 141.493 357.117 140.681 357.117C139.86 357.117 139.202 356.898 138.706 356.461C138.214 356.02 137.968 355.432 137.968 354.697C137.968 354.236 138.093 353.82 138.343 353.449C138.597 353.078 138.946 352.797 139.392 352.605C139.013 352.418 138.714 352.158 138.495 351.826C138.276 351.494 138.167 351.117 138.167 350.695C138.167 349.977 138.397 349.406 138.858 348.984C139.319 348.562 139.927 348.352 140.681 348.352C141.431 348.352 142.036 348.562 142.497 348.984C142.962 349.406 143.194 349.977 143.194 350.695ZM142.31 354.674C142.31 354.197 142.157 353.809 141.853 353.508C141.552 353.207 141.157 353.057 140.669 353.057C140.181 353.057 139.788 353.205 139.491 353.502C139.198 353.799 139.052 354.189 139.052 354.674C139.052 355.158 139.194 355.539 139.479 355.816C139.769 356.094 140.169 356.232 140.681 356.232C141.188 356.232 141.587 356.094 141.876 355.816C142.165 355.535 142.31 355.154 142.31 354.674ZM140.681 349.242C140.255 349.242 139.909 349.375 139.644 349.641C139.382 349.902 139.251 350.26 139.251 350.713C139.251 351.146 139.38 351.498 139.638 351.768C139.899 352.033 140.247 352.166 140.681 352.166C141.114 352.166 141.46 352.033 141.718 351.768C141.979 351.498 142.11 351.146 142.11 350.713C142.11 350.279 141.976 349.926 141.706 349.652C141.437 349.379 141.095 349.242 140.681 349.242Z" fill="#172755"/>
<rect x="171.597" y="327" width="66" height="52" fill="white"/>
<path d="M202.872 357H197.282V356.221L200.235 352.939C200.673 352.443 200.974 352.041 201.138 351.732C201.306 351.42 201.39 351.098 201.39 350.766C201.39 350.32 201.255 349.955 200.985 349.67C200.716 349.385 200.356 349.242 199.907 349.242C199.368 349.242 198.948 349.396 198.647 349.705C198.351 350.01 198.202 350.436 198.202 350.982H197.118C197.118 350.197 197.37 349.562 197.874 349.078C198.382 348.594 199.06 348.352 199.907 348.352C200.7 348.352 201.327 348.561 201.788 348.979C202.249 349.393 202.479 349.945 202.479 350.637C202.479 351.477 201.944 352.477 200.874 353.637L198.589 356.115H202.872V357ZM208.175 353.25C207.948 353.52 207.677 353.736 207.36 353.9C207.048 354.064 206.704 354.146 206.329 354.146C205.837 354.146 205.407 354.025 205.04 353.783C204.677 353.541 204.396 353.201 204.196 352.764C203.997 352.322 203.897 351.836 203.897 351.305C203.897 350.734 204.005 350.221 204.22 349.764C204.438 349.307 204.747 348.957 205.146 348.715C205.544 348.473 206.009 348.352 206.54 348.352C207.384 348.352 208.048 348.668 208.532 349.301C209.021 349.93 209.265 350.789 209.265 351.879V352.195C209.265 353.855 208.937 355.068 208.28 355.834C207.624 356.596 206.634 356.986 205.31 357.006H205.099V356.092H205.327C206.222 356.076 206.909 355.844 207.39 355.395C207.87 354.941 208.132 354.227 208.175 353.25ZM206.505 353.25C206.868 353.25 207.202 353.139 207.507 352.916C207.815 352.693 208.04 352.418 208.181 352.09V351.656C208.181 350.945 208.026 350.367 207.718 349.922C207.409 349.477 207.019 349.254 206.546 349.254C206.069 349.254 205.687 349.438 205.397 349.805C205.108 350.168 204.964 350.648 204.964 351.246C204.964 351.828 205.103 352.309 205.38 352.688C205.661 353.062 206.036 353.25 206.505 353.25Z" fill="#172755"/>
<rect x="237.597" y="327" width="66" height="52" fill="white"/>
<path d="M264.858 352.207H265.673C266.185 352.199 266.587 352.064 266.88 351.803C267.173 351.541 267.319 351.188 267.319 350.742C267.319 349.742 266.821 349.242 265.825 349.242C265.356 349.242 264.981 349.377 264.7 349.646C264.423 349.912 264.284 350.266 264.284 350.707H263.2C263.2 350.031 263.446 349.471 263.938 349.025C264.435 348.576 265.063 348.352 265.825 348.352C266.63 348.352 267.261 348.564 267.718 348.99C268.175 349.416 268.403 350.008 268.403 350.766C268.403 351.137 268.282 351.496 268.04 351.844C267.802 352.191 267.476 352.451 267.062 352.623C267.53 352.771 267.892 353.018 268.146 353.361C268.403 353.705 268.532 354.125 268.532 354.621C268.532 355.387 268.282 355.994 267.782 356.443C267.282 356.893 266.632 357.117 265.831 357.117C265.03 357.117 264.378 356.9 263.874 356.467C263.374 356.033 263.124 355.461 263.124 354.75H264.214C264.214 355.199 264.36 355.559 264.653 355.828C264.946 356.098 265.339 356.232 265.831 356.232C266.354 356.232 266.755 356.096 267.032 355.822C267.31 355.549 267.448 355.156 267.448 354.645C267.448 354.148 267.296 353.768 266.991 353.502C266.687 353.236 266.247 353.1 265.673 353.092H264.858V352.207ZM275.37 353.361C275.37 354.631 275.153 355.574 274.72 356.191C274.286 356.809 273.608 357.117 272.687 357.117C271.776 357.117 271.103 356.816 270.665 356.215C270.228 355.609 270.001 354.707 269.985 353.508V352.061C269.985 350.807 270.202 349.875 270.636 349.266C271.069 348.656 271.749 348.352 272.675 348.352C273.593 348.352 274.269 348.646 274.702 349.236C275.136 349.822 275.358 350.729 275.37 351.955V353.361ZM274.286 351.879C274.286 350.961 274.157 350.293 273.899 349.875C273.642 349.453 273.233 349.242 272.675 349.242C272.12 349.242 271.716 349.451 271.462 349.869C271.208 350.287 271.077 350.93 271.069 351.797V353.531C271.069 354.453 271.202 355.135 271.468 355.576C271.737 356.014 272.144 356.232 272.687 356.232C273.222 356.232 273.618 356.025 273.876 355.611C274.138 355.197 274.274 354.545 274.286 353.654V351.879Z" fill="#172755"/>
<rect x="303.597" y="327" width="66" height="52" fill="white"/>
<path d="M330.858 352.207H331.673C332.185 352.199 332.587 352.064 332.88 351.803C333.173 351.541 333.319 351.188 333.319 350.742C333.319 349.742 332.821 349.242 331.825 349.242C331.356 349.242 330.981 349.377 330.7 349.646C330.423 349.912 330.284 350.266 330.284 350.707H329.2C329.2 350.031 329.446 349.471 329.938 349.025C330.435 348.576 331.063 348.352 331.825 348.352C332.63 348.352 333.261 348.564 333.718 348.99C334.175 349.416 334.403 350.008 334.403 350.766C334.403 351.137 334.282 351.496 334.04 351.844C333.802 352.191 333.476 352.451 333.062 352.623C333.53 352.771 333.892 353.018 334.146 353.361C334.403 353.705 334.532 354.125 334.532 354.621C334.532 355.387 334.282 355.994 333.782 356.443C333.282 356.893 332.632 357.117 331.831 357.117C331.03 357.117 330.378 356.9 329.874 356.467C329.374 356.033 329.124 355.461 329.124 354.75H330.214C330.214 355.199 330.36 355.559 330.653 355.828C330.946 356.098 331.339 356.232 331.831 356.232C332.354 356.232 332.755 356.096 333.032 355.822C333.31 355.549 333.448 355.156 333.448 354.645C333.448 354.148 333.296 353.768 332.991 353.502C332.687 353.236 332.247 353.1 331.673 353.092H330.858V352.207ZM339.583 357H338.493V349.775L336.308 350.578V349.594L339.413 348.428H339.583V357Z" fill="#172755"/>
<rect x="369.597" y="327" width="66" height="52" fill="white"/>
<rect x="435.597" y="327" width="66" height="52" fill="white"/>
<rect x="501.597" y="327" width="66" height="52" fill="white"/>
<path d="M125.4 78.4688L128.189 85.4297L130.978 78.4688H132.437V87H131.312V83.6777L131.417 80.0918L128.617 87H127.755L124.96 80.1094L125.072 83.6777V87H123.947V78.4688H125.4ZM140.986 83.0098C140.986 83.8457 140.845 84.5762 140.564 85.2012C140.283 85.8223 139.884 86.2969 139.369 86.625C138.853 86.9531 138.251 87.1172 137.564 87.1172C136.892 87.1172 136.296 86.9531 135.777 86.625C135.257 86.293 134.853 85.8223 134.564 85.2129C134.279 84.5996 134.132 83.8906 134.125 83.0859V82.4707C134.125 81.6504 134.267 80.9258 134.552 80.2969C134.837 79.668 135.24 79.1875 135.759 78.8555C136.283 78.5195 136.88 78.3516 137.552 78.3516C138.236 78.3516 138.837 78.5176 139.357 78.8496C139.88 79.1777 140.283 79.6562 140.564 80.2852C140.845 80.9102 140.986 81.6387 140.986 82.4707V83.0098ZM139.867 82.459C139.867 81.4473 139.664 80.6719 139.257 80.1328C138.851 79.5898 138.283 79.3184 137.552 79.3184C136.841 79.3184 136.281 79.5898 135.871 80.1328C135.464 80.6719 135.255 81.4219 135.244 82.3828V83.0098C135.244 83.9902 135.449 84.7617 135.859 85.3242C136.273 85.8828 136.841 86.1621 137.564 86.1621C138.291 86.1621 138.853 85.8984 139.251 85.3711C139.65 84.8398 139.855 84.0801 139.867 83.0918V82.459ZM149.23 87H148.099L143.804 80.4258V87H142.673V78.4688H143.804L148.111 85.0723V78.4688H149.23V87Z" fill="#8794BA"/>
<path d="M198.601 79.3945H195.859V87H194.74V79.3945H192.003V78.4688H198.601V79.3945ZM205.873 78.4688V84.2695C205.869 85.0742 205.615 85.7324 205.111 86.2441C204.611 86.7559 203.931 87.043 203.072 87.1055L202.773 87.1172C201.839 87.1172 201.095 86.8652 200.541 86.3613C199.986 85.8574 199.705 85.1641 199.697 84.2812V78.4688H200.81V84.2461C200.81 84.8633 200.98 85.3438 201.32 85.6875C201.66 86.0273 202.144 86.1973 202.773 86.1973C203.41 86.1973 203.896 86.0273 204.232 85.6875C204.572 85.3477 204.742 84.8691 204.742 84.252V78.4688H205.873ZM212.47 83.0566H208.773V86.0801H213.068V87H207.648V78.4688H213.009V79.3945H208.773V82.1367H212.47V83.0566Z" fill="#8794BA"/>
<path d="M258.753 84.3105L258.917 85.4355L259.158 84.4219L260.845 78.4688H261.794L263.441 84.4219L263.675 85.4531L263.857 84.3047L265.181 78.4688H266.312L264.244 87H263.218L261.46 80.7832L261.326 80.1328L261.191 80.7832L259.369 87H258.343L256.281 78.4688H257.406L258.753 84.3105ZM272.388 83.0566H268.691V86.0801H272.986V87H267.566V78.4688H272.927V79.3945H268.691V82.1367H272.388V83.0566ZM274.386 87V78.4688H276.794C277.537 78.4688 278.193 78.6328 278.763 78.9609C279.333 79.2891 279.773 79.7559 280.082 80.3613C280.394 80.9668 280.552 81.6621 280.556 82.4473V82.9922C280.556 83.7969 280.4 84.502 280.087 85.1074C279.779 85.7129 279.335 86.1777 278.757 86.502C278.183 86.8262 277.513 86.9922 276.748 87H274.386ZM275.511 79.3945V86.0801H276.695C277.562 86.0801 278.236 85.8105 278.716 85.2715C279.201 84.7324 279.443 83.9648 279.443 82.9688V82.4707C279.443 81.502 279.214 80.75 278.757 80.2148C278.304 79.6758 277.66 79.4023 276.824 79.3945H275.511Z" fill="#8794BA"/>
<path d="M329.734 79.3945H326.992V87H325.873V79.3945H323.136V78.4688H329.734V79.3945ZM337.556 87H336.425V83.0566H332.125V87H331V78.4688H332.125V82.1367H336.425V78.4688H337.556V87ZM345.56 78.4688V84.2695C345.556 85.0742 345.302 85.7324 344.798 86.2441C344.298 86.7559 343.619 87.043 342.759 87.1055L342.46 87.1172C341.527 87.1172 340.783 86.8652 340.228 86.3613C339.673 85.8574 339.392 85.1641 339.384 84.2812V78.4688H340.498V84.2461C340.498 84.8633 340.667 85.3438 341.007 85.6875C341.347 86.0273 341.832 86.1973 342.46 86.1973C343.097 86.1973 343.583 86.0273 343.919 85.6875C344.259 85.3477 344.429 84.8691 344.429 84.252V78.4688H345.56Z" fill="#8794BA"/>
<path d="M397.644 83.2324H394.064V87H392.939V78.4688H398.224V79.3945H394.064V82.3125H397.644V83.2324ZM402.701 83.5488H400.697V87H399.566V78.4688H402.39C403.351 78.4688 404.089 78.6875 404.605 79.125C405.125 79.5625 405.384 80.1992 405.384 81.0352C405.384 81.5664 405.24 82.0293 404.951 82.4238C404.666 82.8184 404.267 83.1133 403.755 83.3086L405.759 86.9297V87H404.552L402.701 83.5488ZM400.697 82.6289H402.425C402.984 82.6289 403.427 82.4844 403.755 82.1953C404.087 81.9062 404.253 81.5195 404.253 81.0352C404.253 80.5078 404.095 80.1035 403.779 79.8223C403.466 79.541 403.013 79.3984 402.419 79.3945H400.697V82.6289ZM408.173 87H407.048V78.4688H408.173V87Z" fill="#8794BA"/>
<path d="M459.425 83.1973C458.46 82.9199 457.757 82.5801 457.316 82.1777C456.878 81.7715 456.66 81.2715 456.66 80.6777C456.66 80.0059 456.927 79.4512 457.462 79.0137C458.001 78.5723 458.701 78.3516 459.56 78.3516C460.146 78.3516 460.667 78.4648 461.125 78.6914C461.585 78.918 461.941 79.2305 462.191 79.6289C462.445 80.0273 462.572 80.4629 462.572 80.9355H461.441C461.441 80.4199 461.277 80.0156 460.949 79.7227C460.621 79.4258 460.158 79.2773 459.56 79.2773C459.005 79.2773 458.572 79.4004 458.259 79.6465C457.951 79.8887 457.796 80.2266 457.796 80.6602C457.796 81.0078 457.943 81.3027 458.236 81.5449C458.533 81.7832 459.035 82.002 459.742 82.2012C460.453 82.4004 461.007 82.6211 461.406 82.8633C461.808 83.1016 462.105 83.3809 462.296 83.7012C462.492 84.0215 462.589 84.3984 462.589 84.832C462.589 85.5234 462.32 86.0781 461.781 86.4961C461.242 86.9102 460.521 87.1172 459.619 87.1172C459.033 87.1172 458.486 87.0059 457.978 86.7832C457.47 86.5566 457.078 86.248 456.8 85.8574C456.527 85.4668 456.39 85.0234 456.39 84.5273H457.521C457.521 85.043 457.71 85.4512 458.089 85.752C458.472 86.0488 458.982 86.1973 459.619 86.1973C460.212 86.1973 460.667 86.0762 460.984 85.834C461.3 85.5918 461.458 85.2617 461.458 84.8438C461.458 84.4258 461.312 84.1035 461.019 83.877C460.726 83.6465 460.195 83.4199 459.425 83.1973ZM468.748 84.7734H465.173L464.371 87H463.21L466.468 78.4688H467.453L470.716 87H469.562L468.748 84.7734ZM465.513 83.8477H468.414L466.96 79.8574L465.513 83.8477ZM476.998 79.3945H474.255V87H473.136V79.3945H470.4V78.4688H476.998V79.3945Z" fill="#8794BA"/>
<path d="M524.371 83.1973C523.406 82.9199 522.703 82.5801 522.261 82.1777C521.824 81.7715 521.605 81.2715 521.605 80.6777C521.605 80.0059 521.873 79.4512 522.408 79.0137C522.947 78.5723 523.646 78.3516 524.505 78.3516C525.091 78.3516 525.613 78.4648 526.07 78.6914C526.531 78.918 526.886 79.2305 527.136 79.6289C527.39 80.0273 527.517 80.4629 527.517 80.9355H526.386C526.386 80.4199 526.222 80.0156 525.894 79.7227C525.566 79.4258 525.103 79.2773 524.505 79.2773C523.951 79.2773 523.517 79.4004 523.205 79.6465C522.896 79.8887 522.742 80.2266 522.742 80.6602C522.742 81.0078 522.888 81.3027 523.181 81.5449C523.478 81.7832 523.98 82.002 524.687 82.2012C525.398 82.4004 525.953 82.6211 526.351 82.8633C526.753 83.1016 527.05 83.3809 527.242 83.7012C527.437 84.0215 527.535 84.3984 527.535 84.832C527.535 85.5234 527.265 86.0781 526.726 86.4961C526.187 86.9102 525.466 87.1172 524.564 87.1172C523.978 87.1172 523.431 87.0059 522.923 86.7832C522.416 86.5566 522.023 86.248 521.746 85.8574C521.472 85.4668 521.335 85.0234 521.335 84.5273H522.466C522.466 85.043 522.656 85.4512 523.035 85.752C523.417 86.0488 523.927 86.1973 524.564 86.1973C525.158 86.1973 525.613 86.0762 525.929 85.834C526.246 85.5918 526.404 85.2617 526.404 84.8438C526.404 84.4258 526.257 84.1035 525.964 83.877C525.671 83.6465 525.14 83.4199 524.371 83.1973ZM534.988 78.4688V84.2695C534.984 85.0742 534.73 85.7324 534.226 86.2441C533.726 86.7559 533.046 87.043 532.187 87.1055L531.888 87.1172C530.955 87.1172 530.21 86.8652 529.656 86.3613C529.101 85.8574 528.82 85.1641 528.812 84.2812V78.4688H529.925V84.2461C529.925 84.8633 530.095 85.3438 530.435 85.6875C530.775 86.0273 531.259 86.1973 531.888 86.1973C532.525 86.1973 533.011 86.0273 533.347 85.6875C533.687 85.3477 533.857 84.8691 533.857 84.252V78.4688H534.988ZM543.32 87H542.189L537.894 80.4258V87H536.763V78.4688H537.894L542.201 85.0723V78.4688H543.32V87Z" fill="#8794BA"/>
<defs>
<filter id="filter0_d" x="0.597168" y="0" width="670" height="480" filterUnits="userSpaceOnUse" color-interpolation-filters="sRGB">
<feFlood flood-opacity="0" result="BackgroundImageFix"/>
<feColorMatrix in="SourceAlpha" type="matrix" values="0 0 0 0 0 0 0 0 0 0 0 0 0 0 0 0 0 0 127 0"/>
<feMorphology radius="15" operator="erode" in="SourceAlpha" result="effect1_dropShadow"/>
<feOffset dy="18"/>
<feGaussianBlur stdDeviation="25"/>
<feColorMatrix type="matrix" values="0 0 0 0 0.0996452 0 0 0 0 0.164326 0 0 0 0 0.350284 0 0 0 0.2 0"/>
<feBlend mode="normal" in2="BackgroundImageFix" result="effect1_dropShadow"/>
<feBlend mode="normal" in="SourceGraphic" in2="effect1_dropShadow" result="shape"/>
</filter>
</defs>
</svg>
